<svg width="989" height="900" viewBox="0 0 989 900" fill="none" xmlns="http://www.w3.org/2000/svg">
<g opacity="0.5">
<path d="M515.129 856.337C519.765 848.451 521.765 839.312 523.112 830.268C527.563 800.505 525.531 769.426 514.527 741.42C503.524 713.413 483.178 688.653 456.417 674.876C443.806 668.382 429.927 664.304 418.15 656.401C399.462 643.84 388.251 623.187 375.069 604.935C361.9 586.676 343.747 569.061 321.257 568.142C311.359 567.743 301.313 570.656 291.656 568.492C277.933 565.416 268.274 552.922 255.16 547.832C242.902 543.079 229.134 545.296 216.147 543.297C200.98 540.948 186.837 532.526 177.552 520.31M499.862 863.686C503.851 856.802 505.633 848.871 506.844 841.013C510.835 815.148 509.22 788.129 499.907 763.702C490.589 739.261 473.16 717.759 450.379 705.162C446.669 703.112 442.858 701.232 438.926 699.514C431.153 696.112 423.231 693.356 416.096 689.122C413.248 687.422 410.582 685.531 408.043 683.458C397.369 674.716 389.24 662.575 381.129 650.758C379.639 648.599 378.155 646.452 376.652 644.329C369.957 634.934 361.997 625.652 352.634 619.138C345.581 614.245 337.739 610.92 329.157 610.263C320.368 609.583 311.399 611.76 302.718 609.801C290.391 607.02 281.409 596.6 269.6 592.574C264.87 590.961 259.918 590.453 254.916 590.316C248.235 590.124 241.418 590.603 234.816 589.904C221.295 588.506 208.616 581.998 199.89 571.669M484.613 871.041C487.961 865.172 489.52 858.437 490.595 851.764C494.142 829.805 492.927 806.838 485.3 785.978C477.672 765.117 463.167 746.822 444.342 735.447C441.162 733.526 437.895 731.676 434.431 730.116C427.565 727.028 420.482 725.087 414.035 721.861C411.46 720.578 409.042 719.115 406.732 717.464C396.95 710.512 389.368 699.915 382.17 689.455C380.859 687.545 379.547 685.634 378.217 683.748C372.345 675.358 365.565 667.003 357.452 660.989C351.365 656.472 344.536 653.336 337.051 652.403C329.371 651.441 321.478 652.882 313.779 651.142C302.855 648.667 294.543 640.309 284.041 637.348C279.846 636.163 275.465 635.9 271.064 635.979C265.204 636.081 259.245 636.775 253.455 636.542C241.573 636.081 230.383 631.505 222.202 623.069M469.346 878.389C472.059 873.517 473.389 867.996 474.327 862.509C477.426 844.442 476.617 825.541 470.667 808.265C464.718 790.989 453.151 775.836 438.292 765.738C435.637 763.933 432.938 762.133 429.931 760.736C423.982 757.956 417.734 756.818 411.962 754.606C409.672 753.734 407.502 752.699 405.415 751.488C396.548 746.315 389.49 737.273 383.199 728.157C382.048 726.489 380.909 724.816 379.775 723.155C374.72 715.787 369.114 708.347 362.271 702.839C357.143 698.717 351.328 695.739 344.946 694.542C338.38 693.311 331.546 694.01 324.847 692.464C315.319 690.284 307.684 683.999 298.475 682.108C294.797 681.346 291.005 681.335 287.212 681.642C282.173 682.038 277.079 682.96 272.105 683.174C261.869 683.631 252.143 681 244.52 674.452M454.085 885.75C456.156 881.893 457.27 877.58 458.07 873.279C460.727 859.117 460.317 844.269 456.059 830.572C451.782 816.869 443.21 804.785 432.267 796.048C430.136 794.359 427.987 792.601 425.46 791.356C420.43 788.885 415.022 788.532 409.92 787.352C407.915 786.89 405.98 786.289 404.122 785.5C396.165 782.125 389.636 774.62 384.258 766.86C383.273 765.447 382.319 764.004 381.37 762.574C377.138 756.212 372.706 749.716 367.12 744.69C362.964 740.958 358.162 738.136 352.87 736.682C347.414 735.17 341.656 735.133 335.938 733.805C327.807 731.92 320.837 727.714 312.945 726.882C309.791 726.555 306.582 726.783 303.396 727.319C299.178 728.009 294.943 729.146 290.798 729.831C282.207 731.238 273.958 730.515 266.875 725.878M438.818 893.098C440.242 890.244 441.139 887.139 441.802 884.023C444.017 873.767 444.019 862.966 441.42 852.847C438.834 842.723 433.316 833.575 426.199 826.333C424.617 824.717 423.007 823.039 420.935 821.957C416.811 819.801 412.249 820.244 407.829 820.09C406.108 820.039 404.427 819.879 402.781 819.506C395.703 817.926 389.734 811.96 385.282 805.55C384.469 804.374 383.68 803.186 382.917 801.986C379.501 796.647 376.243 791.066 371.927 786.546C368.729 783.209 364.947 780.557 360.758 778.84C356.411 777.046 351.729 776.274 346.993 775.163C340.264 773.585 333.964 771.441 327.379 771.674C324.755 771.762 322.121 772.249 319.55 772.994C316.146 773.966 312.782 775.343 309.455 776.475C302.509 778.832 295.725 780.023 289.2 777.273M423.569 900.453C429.556 886.446 428.254 869.549 420.18 856.625C419.198 855.059 418.081 853.496 416.478 852.572C412.044 850.016 406.609 853.326 401.494 853.53C395.325 853.779 389.879 849.337 386.347 844.265C382.802 839.199 380.513 833.327 376.782 828.41C367.575 816.263 349.406 811.954 335.722 818.676C327.731 822.603 320.355 829.949 311.548 828.687M773.372 762.247C782.927 743.192 792.723 721.537 785.945 701.32C780.402 684.776 764.951 673.489 757.181 657.875C749.698 642.869 749.926 625.265 745.015 609.225C738.156 586.85 721.278 568.405 701.173 556.437C666.672 535.895 621.855 533.89 585.661 551.26C572.779 557.436 560.82 565.949 546.979 569.488C536.602 572.148 525.727 571.862 515.099 573.126C495.201 575.512 475.998 583.538 460.31 596.024C455.95 599.493 451.718 603.491 449.636 608.671C445.81 618.143 450.243 629.228 457.327 636.591C464.411 643.955 473.755 648.599 482.382 654.067C517.157 676.086 540.921 712.122 557.214 749.915C562.27 761.645 566.741 773.802 568.136 786.504C570.009 803.615 566.188 820.796 562.394 837.584C560.756 844.827 562.32 852.147 566.702 858.151C571.083 864.155 577.641 868.192 584.397 871.302C610.656 883.407 642.332 883.122 668.365 870.536C679.055 865.365 688.716 858.302 697.968 850.856C727.523 827.063 756.403 796.167 773.403 762.248L773.372 762.247ZM582.416 765.458C584.442 779.013 582.492 792.81 580.338 806.37C579.418 812.183 580.862 818.06 584.441 822.943C588.026 827.839 593.262 831.258 598.642 833.958C619.695 844.629 644.951 845.696 666.354 836.297C675.073 832.436 683.086 826.984 690.86 821.025C713.796 801.918 736.644 777.78 750.053 751.011C757.639 735.869 765.125 718.654 759.945 702.559C755.705 689.384 743.853 680.168 737.592 667.811C731.364 655.62 730.638 641.739 725.981 629.154C719.51 611.609 705.367 597.158 689.064 587.273C661.907 570.927 627.224 568.087 598.565 580.596C588.369 585.049 578.922 591.314 568.098 593.928C559.906 595.889 551.375 595.693 543.069 596.708C527.396 598.643 512.432 605.061 500.269 614.972C496.893 617.734 493.612 620.889 491.965 624.939C488.951 632.347 492.158 640.996 497.388 646.872C502.624 652.73 509.603 656.568 516.059 661.032C542.11 678.916 560.349 707.458 573.359 736.986C577.406 746.163 580.944 755.641 582.41 765.446L582.416 765.458ZM596.714 744.419C598.911 754.424 598.808 764.819 598.319 775.169C598.117 779.551 599.44 783.986 602.217 787.749C605.006 791.536 608.926 794.32 612.925 796.627C628.785 805.798 647.617 808.338 664.398 802.077C671.169 799.545 677.523 795.68 683.812 791.195C700.113 776.768 716.958 759.389 726.77 739.787C732.388 728.559 737.581 715.79 733.976 703.799C731.022 693.985 722.824 686.83 718.034 677.747C713.078 668.348 711.387 658.225 706.971 649.071C700.896 636.338 689.507 625.858 676.967 618.103C657.193 605.873 632.6 602.298 611.481 609.926C603.982 612.65 597.042 616.717 589.236 618.374C583.234 619.65 577.054 619.524 571.057 620.297C559.615 621.793 548.884 626.59 540.24 633.946C537.842 635.987 535.529 638.307 534.312 641.245C532.097 646.593 534.084 652.82 537.485 657.197C540.867 661.567 545.462 664.593 549.772 668.04C567.054 681.856 579.814 702.838 589.54 724.101C592.572 730.712 595.208 737.511 596.733 744.426L596.714 744.419ZM611 723.386C613.453 729.861 615.069 736.809 616.269 743.967C616.761 746.901 617.981 749.9 619.962 752.554C621.967 755.227 624.547 757.386 627.176 759.295C637.842 767.027 650.242 770.925 662.398 767.863C667.204 766.653 671.905 764.387 676.709 761.376C686.38 751.641 697.217 741.008 703.413 728.568C707.063 721.254 709.951 712.937 707.939 705.056C706.288 698.61 701.684 693.514 698.42 687.694C694.713 681.098 692.055 674.734 687.913 669.011C682.201 661.121 673.572 654.624 664.821 648.957C652.385 640.91 637.932 636.513 624.366 639.286C619.565 640.281 615.131 642.118 610.336 642.839C606.518 643.415 602.684 643.378 599.02 643.897C591.81 644.955 585.318 648.143 580.193 652.912C578.773 654.234 577.416 655.724 576.64 657.544C575.237 660.828 575.98 664.612 577.545 667.509C579.08 670.373 581.298 672.598 583.455 675.048C591.987 684.741 599.247 698.217 605.703 711.21C607.726 715.268 609.515 719.407 611.019 723.392L611 723.386ZM669.636 731.557C672.69 726.509 677.494 722.634 680.1 717.344C683.148 711.162 682.642 703.388 678.836 697.642C672.95 688.773 661.283 686.105 652.712 679.793C647.57 675.996 643.307 670.723 637.27 668.622C613.492 660.359 612.477 690.725 625.299 702.347C637.832 713.71 648.174 741.439 669.636 731.557ZM343.304 472.533C347.749 462.541 355.42 454.313 360.573 444.668C365.739 435.017 368.006 422.403 361.512 413.594C359.704 411.146 357.276 409.052 356.323 406.169C354.694 401.213 358.045 395.994 361.892 392.465C371.418 383.739 384.379 380.07 395.705 373.871C407.026 367.66 417.744 356.583 416.29 343.758C415.656 338.15 412.728 332.625 414.027 327.134C416.414 317.084 430.39 315.435 440.155 318.79C454.03 323.567 465.452 333.637 478.807 339.75C497.554 348.329 519.027 348.668 538.552 355.304C560.802 362.866 580.075 378.877 591.584 399.359C603.11 419.847 606.772 444.627 601.671 467.562C598.415 482.219 591.793 495.905 584.672 509.146C582.128 513.862 579.385 518.702 575.009 521.815C571.155 524.56 566.406 525.667 561.778 526.611C547.763 529.46 533.551 531.28 519.27 532.058C511.166 532.508 502.898 532.642 495.241 535.32C487.262 538.12 480.513 543.49 473.728 548.528C455.143 562.352 433.052 574.847 410.111 571.658C370.561 566.179 325.249 513.101 343.298 472.551L343.304 472.533ZM426.218 535.464C396.76 533.262 363.791 495.666 374.577 465.653C377.222 458.298 382.115 452.109 385.387 444.958C388.654 437.765 390.072 428.612 385.783 422.034C384.58 420.194 382.949 418.601 382.365 416.468C381.302 412.517 383.802 408.382 386.65 405.431C392.469 399.44 400.25 395.901 407.923 392.231C409.607 391.435 411.249 390.614 412.848 389.798C422.337 384.937 430.736 378.409 431.183 370.73C431.381 367.334 430.277 364.099 431.642 360.606C434.125 354.222 443.36 353.026 450.288 355.312C460.135 358.553 468.362 365.225 477.873 369.23C484.168 371.876 490.863 373.288 497.638 374.481C505.223 375.821 512.919 376.911 520.245 379.177C536.047 384.088 549.747 394.779 558.5 408.595C567.431 422.69 571.277 440.354 567.779 457.064C565.532 467.956 560.229 477.99 554.488 487.322C552.453 490.646 550.27 494.01 547.004 496.204C544.118 498.143 540.632 498.972 537.221 499.705C533.091 500.58 528.938 501.345 524.775 502.024C518.545 503.043 512.308 503.854 506.07 504.437C500.17 504.998 494.157 505.385 488.577 507.49C482.763 509.676 477.755 513.602 472.753 517.314C459.016 527.484 442.978 536.696 426.212 535.452L426.218 535.464ZM442.318 499.289C422.913 500.442 402.362 478.294 405.842 458.79C406.683 454.091 408.822 449.93 410.212 445.274C411.617 440.551 412.179 434.847 410.083 430.505C409.498 429.266 408.677 428.17 408.456 426.805C407.983 423.847 409.601 420.795 411.473 418.441C415.282 413.613 420.661 410.314 426.342 407.524C427.618 406.891 428.857 406.306 430.057 405.769C437.733 402.265 443.773 400.396 446.154 397.741C447.166 396.612 447.383 395.403 449.323 394.123C450.905 391.058 456.391 390.678 460.469 391.872C466.289 393.577 471.325 396.863 476.987 398.748C480.727 399.996 484.678 400.599 488.655 401.098C493.116 401.657 497.64 402.064 501.98 403.105C511.34 405.348 519.516 410.726 525.446 417.892C531.836 425.614 535.786 436.124 533.915 446.627C532.641 453.742 528.67 460.118 524.326 465.578C522.795 467.498 521.19 469.392 519.011 470.679C517.092 471.813 514.874 472.376 512.688 472.878C510.039 473.493 507.38 474.053 504.727 474.594C500.751 475.412 496.818 476.194 492.9 476.909C489.19 477.586 485.45 478.232 481.937 479.74C478.274 481.319 475.039 483.801 471.8 486.18C462.911 492.696 452.895 498.686 442.348 499.32L442.318 499.289ZM458.413 463.101C467.502 458.323 474.942 450.536 484.608 447.076C487.77 445.946 491.124 445.285 494.106 443.74C497.087 442.196 499.752 439.467 499.999 436.109C500.302 431.846 496.481 428.182 492.339 427.109C488.197 426.036 483.827 426.889 479.626 427.646C475.412 428.41 470.968 429.04 466.945 427.578C458.041 424.346 454.734 417.667 444.731 422.787C439.228 425.599 435.313 431.068 434.516 437.11C432.869 449.719 444.073 470.648 458.426 463.095L458.413 463.101ZM673.174 509.48C687.246 512.012 701.528 513.385 715.83 513.582C721.428 513.664 727.234 513.512 732.316 511.156C744.234 505.632 747.754 490.669 749.851 477.696C753.387 455.743 756.94 433.796 760.475 411.842C762.352 400.262 764.173 388.116 760.371 377.021C756.448 365.574 746.745 355.873 746.617 343.769C746.56 338.646 748.295 333.661 748.636 328.546C749.845 310.872 734.862 296.47 719.961 286.892C713.8 282.925 706.132 279.2 699.448 282.207C692.213 285.458 690.22 294.867 690.895 302.774C691.57 310.68 693.932 318.759 691.698 326.374C687.473 340.776 670.135 345.664 657.676 354.049C641.608 364.866 632.395 383.715 629.034 402.799C625.548 422.578 623.305 449.45 625.295 469.566C627.709 493.981 651.681 505.636 673.167 509.498L673.174 509.48ZM686.982 478.265C694.842 478.87 702.685 479.406 710.362 478.855C713.369 478.646 716.488 478.354 719.114 476.796C725.752 472.857 727.029 463.665 727.819 455.748C729.165 442.403 730.83 428.998 732.82 415.636C733.865 408.583 735.059 401.233 733.396 394.475C731.739 387.729 727.127 381.909 727.065 374.819C727.034 371.804 727.847 368.875 727.902 365.88C728.114 355.555 719.629 347.02 710.864 341.39C706.823 338.8 702.014 336.603 697.712 337.984C692.973 339.496 690.855 344.374 690.163 348.746C689.477 353.099 689.716 357.773 687.763 362.361C684.097 370.955 674.18 375.262 667.241 381.417C662.491 385.631 658.982 391.03 656.629 396.822C654.521 402.045 653.226 407.898 652.738 413.854C651.665 426.752 651.874 443.452 654.673 455.855C657.996 470.584 672.731 477.181 686.958 478.277L686.982 478.265ZM700.785 447.038C702.968 446.144 704.994 444.596 705.906 442.423C707.039 439.722 706.305 436.66 705.787 433.769C704.478 426.54 704.701 419.028 706.423 411.898C706.902 409.899 707.504 407.903 707.507 405.856C707.523 401.85 705.145 398.035 701.768 395.888C688.672 387.533 674.721 404.787 675.334 417.147C675.966 429.709 684.256 453.862 700.773 447.044L700.785 447.038ZM203.737 480.31C212.796 481.818 222.264 479.511 231.178 481.738C242.286 484.504 250.528 493.774 260.91 498.595C262.953 499.554 265.153 500.332 267.416 500.248C272.96 500.022 276.978 494.61 278.329 489.23C281.577 476.289 274.556 461.746 280.211 449.668C282.656 444.453 287.174 440.486 289.977 435.451C299.519 418.325 286.384 397.414 287.25 377.828C287.711 367.355 292.491 357.144 300.222 350.068C312.537 338.812 332.732 333.847 336.849 317.678C337.997 313.182 337.595 308.419 336.741 303.853C333.937 288.939 326.191 275.011 314.993 264.774C307.854 258.255 299.473 253.277 291.241 248.228C275.254 238.436 259.115 227.745 248.655 212.176C234.732 191.426 231.778 163.237 212.716 147.065C195.02 132.051 165.713 133.505 149.582 150.183C138.594 161.555 133.795 178.107 121.789 188.383C110.015 198.444 93.4117 200.622 77.9317 199.951C62.4516 199.281 47.0191 196.21 31.58 197.55C28.9158 197.779 26.0253 198.265 24.2407 200.26C23.1723 201.461 22.6526 203.055 22.2015 204.601C11.6037 240.464 15.3586 279.742 29.103 314.513C42.8473 349.284 66.1354 379.758 93.5676 405.185C103.424 414.314 113.813 422.388 126.911 426.001C137.501 428.921 145.941 432.326 154.314 439.854C169.727 453.689 181.543 476.586 203.744 480.292L203.737 480.31ZM105.818 386.416C113.549 393.579 121.684 399.992 131.853 403.081C140.045 405.543 146.635 408.398 153.175 414.322C165.269 425.302 174.681 443.078 191.916 446.403C198.968 447.768 206.329 446.26 213.285 448.124C221.963 450.463 228.518 457.637 236.668 461.421C238.281 462.174 240.001 462.801 241.767 462.754C246.033 462.647 249.151 458.6 250.269 454.587C252.972 444.948 247.983 434.066 252.493 424.982C254.443 421.062 257.953 418.071 260.158 414.272C267.695 401.335 258.185 385.468 259.096 370.465C259.648 361.949 263.001 353.624 268.421 347.716C271.146 344.762 274.411 342.28 277.694 339.897C284.867 334.72 292.103 329.803 293.914 320.843C294.645 317.195 294.266 313.345 293.608 309.611C291.47 297.776 285.908 286.739 277.864 278.497C272.724 273.26 266.676 269.179 260.709 265.045C253.107 259.759 245.407 254.171 238.764 247.387C235.314 243.867 232.14 240.034 229.429 235.77C218.845 219.169 215.802 197.112 200.523 184.682C186.52 173.286 163.837 174.458 151.002 187.019C142.264 195.586 138.282 208.161 128.681 215.575C119.049 223.018 105.763 223.978 93.4844 223.158C81.1272 222.3 68.8633 220.005 56.4122 221.706C54.3167 221.983 52.0457 222.435 50.6003 224.057C49.7393 225.024 49.3009 226.277 48.8996 227.511C39.9737 255.177 42.0739 285.694 52.7467 312.872C52.9955 313.527 53.2625 314.188 53.5361 314.832C64.7591 342.341 84.0227 366.188 105.813 386.373L105.818 386.416ZM118.068 367.647C123.674 372.845 129.548 377.615 136.794 380.16C142.588 382.195 147.322 384.457 152.023 388.796C160.799 396.92 167.814 409.557 180.069 412.508C185.109 413.718 190.37 413.02 195.354 414.528C201.604 416.439 206.453 421.51 212.402 424.259C213.579 424.794 214.824 425.281 216.111 425.279C219.095 425.278 221.317 422.607 222.209 419.974C224.366 413.638 221.409 406.416 224.78 400.34C226.235 397.713 228.725 395.704 230.357 393.13C235.895 384.395 230.016 373.553 230.959 363.14C231.602 356.581 233.541 350.135 236.649 345.395C238.209 343.022 240.086 340.999 241.98 339.075C246.105 334.884 250.238 330.871 251.021 324.064C251.341 321.277 250.984 318.31 250.497 315.419C249.051 306.65 245.692 298.512 240.758 292.268C237.624 288.296 233.908 285.143 230.218 281.918C225.525 277.787 220.714 273.44 216.419 268.259C214.188 265.556 212.084 262.642 210.213 259.451C202.967 246.998 199.855 231.078 188.328 222.39C178.018 214.612 161.94 215.497 152.42 223.947C145.932 229.709 142.732 238.295 135.577 242.871C128.05 247.684 118.129 247.463 109.059 246.476C99.8116 245.467 90.7419 243.904 81.2482 245.965C79.7214 246.293 78.0577 246.715 76.9579 247.946C76.3044 248.679 75.9347 249.596 75.5956 250.514C68.0228 270.815 68.9663 293.591 77.3557 313.82C77.5533 314.302 77.7508 314.784 77.9666 315.273C86.6746 335.503 101.901 352.728 118.049 367.671L118.068 367.647ZM130.331 348.872C133.824 352.1 137.419 355.219 141.748 357.233C145.144 358.81 148.028 360.523 150.89 363.276C156.347 368.545 160.959 376.061 168.241 378.62C171.275 379.686 174.422 379.775 177.454 380.933C181.281 382.397 184.437 385.39 188.173 387.109C188.907 387.444 189.69 387.756 190.473 387.81C192.174 387.915 193.502 386.622 194.161 385.356C195.773 382.322 194.848 378.76 197.073 375.679C198.034 374.347 199.509 373.301 200.55 371.976C204.083 367.43 201.841 361.626 202.804 355.809C203.538 351.206 204.045 346.634 204.841 343.061C205.242 341.281 205.725 339.705 206.224 338.227C207.299 335.053 208.312 331.939 208.093 327.241C208.007 325.297 207.661 323.249 207.37 321.19C206.59 315.499 205.433 310.259 203.622 306.009C202.493 303.331 201.092 301.069 199.692 298.747C197.914 295.784 195.992 292.678 194.044 289.069C193.033 287.184 191.986 285.193 190.98 283.063C187.06 274.766 183.91 264.954 176.128 260.025C169.531 255.84 160.057 256.468 153.839 260.814C149.601 263.771 147.073 268.297 142.469 270.094C136.931 272.255 130.48 270.849 124.611 269.713C118.474 268.523 112.612 267.626 106.061 270.145C105.11 270.503 104.059 270.909 103.311 271.762C102.877 272.255 102.57 272.854 102.275 273.448C96.1221 286.398 95.8666 301.409 101.948 314.7C102.094 315.009 102.24 315.319 102.387 315.629C108.567 328.584 119.77 339.183 130.281 348.896L130.331 348.872ZM164.836 350.311C168.171 351.598 172.444 351.216 174.693 348.441C175.915 344.486 173.291 340.439 170.517 337.357C167.761 334.281 164.525 331.053 164.274 326.93C163.893 320.641 170.491 316.04 171.713 309.873C172.748 304.658 169.138 298.941 163.972 297.655C159.231 296.471 154.109 298.648 149.41 297.293C140.863 294.817 136.731 286.968 129.022 296.366C124.38 302.028 122.773 309.24 126.602 315.55C130.177 321.451 137.574 325.501 142.563 330.097C149.328 336.338 155.998 346.897 164.824 350.316L164.836 350.311ZM315.105 163.744C320.108 167.409 325.493 170.985 331.619 171.863C337.757 172.735 344.819 170.111 347.165 164.368C348.422 161.29 348.278 157.586 350.382 155.016C352.057 152.983 354.803 152.125 356.658 150.249C359.611 147.264 359.618 142.276 357.791 138.504C355.963 134.732 352.694 131.884 349.482 129.19C330.094 112.87 309.546 97.1426 295.571 75.9928C283.51 57.741 276.925 36.2661 264.51 18.2576C259.952 11.6551 252.933 4.94256 245.096 6.63014C223.837 11.2346 223.66 47.1283 231.766 61.9772C244.738 85.7514 258.981 109.199 277.143 129.4C288.568 142.105 301.293 153.651 315.074 163.743L315.105 163.744ZM295.177 120.533C296.572 121.722 298.095 122.926 299.915 123.188C301.735 123.449 303.873 122.363 304.085 120.536C304.238 119.191 303.352 117.989 302.518 116.929C292.353 104.037 281.87 91.1451 274.181 76.569C271.753 71.9748 267.108 52.2649 262.183 60.1812C258.465 66.1638 263.554 80.5594 266.311 86.0433C272.881 99.1484 284.113 111.126 295.177 120.533ZM481.576 270.896C504.711 280.781 531.598 279.849 554.051 291.208C565.841 297.181 577.704 306.71 590.626 303.984C597.637 302.505 603.378 297.566 608.298 292.364C611.944 288.505 615.332 284.36 617.79 279.654C628.915 258.342 618.777 230.275 630.779 209.442C634.954 202.182 641.635 196.284 644.203 188.315C646.73 180.487 644.846 171.879 641.663 164.309C638.481 156.738 634.024 149.709 631.132 142.016C623.884 122.824 626.131 99.5555 612.861 83.9051C604.79 74.3874 592.414 69.7058 580.246 66.9404C569.322 64.4663 557.665 63.2625 547.075 66.9166C526.891 73.8611 515.707 96.2014 496.388 105.297C490.716 107.977 484.521 109.389 478.784 111.932C473.048 114.475 467.529 118.506 465.352 124.382C463.364 129.729 464.287 136.14 460.961 140.771C460.031 142.074 458.793 143.174 457.99 144.553C454.244 150.988 461.099 158.157 463.842 165.086C473.284 188.953 441.46 201.912 439.004 222.688C436.571 243.318 465.512 264.018 481.588 270.89L481.576 270.896ZM503.01 247.774C508.754 250.089 514.747 251.424 520.843 252.528C531.809 254.513 543.038 255.965 553.049 260.9C561.219 264.918 569.426 271.356 578.36 269.651C583.191 268.717 587.19 265.479 590.636 262.064C593.181 259.529 595.576 256.807 597.336 253.703C605.351 239.661 598.667 220.703 607.678 206.812C610.063 203.14 612.896 199.484 614.66 195.682C615.586 193.699 616.287 191.687 616.617 189.531C616.932 187.504 616.886 185.451 616.595 183.392C615.996 179.206 614.356 174.966 612.61 170.853C610.317 165.422 607.263 160.336 605.273 154.808C601.8 145.148 601.519 134.132 598.451 124.493C597.128 120.346 595.291 116.457 592.481 113.043C586.815 106.146 578.134 102.521 569.508 100.325C561.704 98.3006 553.479 97.3388 546.029 99.7826C531.668 104.431 523.674 120.25 510.466 127.307C506.622 129.366 502.416 130.565 498.561 132.537C494.694 134.516 490.989 137.478 489.523 141.654C488.181 145.484 488.797 150.026 486.596 153.353C485.981 154.295 485.155 155.079 484.624 156.072C482.143 160.728 486.757 165.91 488.648 170.94C495.026 187.968 474.012 197.804 472.703 212.768C471.643 225.402 485.577 237.967 496.987 244.741C499.116 246.008 501.169 247.052 503.034 247.792L503.01 247.774ZM524.443 224.651C527.653 225.771 530.914 226.26 534.238 226.659C540.252 227.363 546.437 228.047 552.047 230.592C556.584 232.66 561.153 236.015 566.089 235.305C568.757 234.923 570.997 233.38 572.963 231.739C574.424 230.534 575.789 229.223 576.864 227.715C581.74 220.913 578.923 211.261 584.559 204.145C586.615 201.538 588.437 198.405 588.933 195.383C589.189 193.808 589.211 192.283 588.988 190.722C588.782 189.259 588.343 187.816 587.774 186.388C586.608 183.47 584.86 180.508 583.509 177.359C582.094 174.074 580.46 170.938 579.378 167.556C577.5 161.657 577.366 155.024 575.555 149.139C574.778 146.628 573.698 144.245 572.079 142.132C568.798 137.849 563.818 135.324 558.752 133.642C554.063 132.085 549.288 131.372 544.966 132.581C536.439 134.958 531.631 144.212 524.521 149.267C522.504 150.705 520.307 151.698 518.303 153.099C516.299 154.5 514.406 156.394 513.664 158.895C512.969 161.208 513.289 163.874 512.215 165.897C511.908 166.466 511.505 166.959 511.253 167.548C510.049 170.419 512.422 173.615 513.449 176.751C516.769 186.922 506.503 193.665 506.397 202.804C506.3 210.712 514.001 218.42 520.796 222.799C522.053 223.599 523.294 224.27 524.467 224.67L524.443 224.651ZM544.588 200.82C544.96 201.159 545.388 201.487 545.884 201.511C546.538 201.55 547.076 201.084 547.647 200.754C551.798 198.414 557.365 203.979 561.428 201.484C563.472 200.231 563.984 197.338 563.201 195.072C562.431 192.8 560.681 191.021 558.948 189.371C557.214 187.721 555.389 186.038 554.42 183.86C553.02 180.734 553.542 177.094 552.673 173.779C551.961 171.055 550.276 168.609 547.984 166.965C539.82 161.097 537.225 173.048 537.87 178.999C538.605 185.847 539.286 195.978 544.6 200.814L544.588 200.82Z" stroke="#D0D0D0" stroke-miterlimit="10"/>
<path d="M153.429 466.039C155.37 482.012 170.691 487.605 182.006 495.62C192.634 503.143 200.077 512.775 214.75 511.448C220.724 510.914 226.576 508.679 232.525 509.247C236.92 509.67 241.025 511.594 245.009 513.484C254.83 518.145 264.646 522.794 274.467 527.456C280.851 530.484 287.442 533.566 294.509 534.03C301.569 534.482 309.308 531.72 312.712 525.522C318.645 514.706 308.902 502.13 307.608 489.866C305.913 473.867 318.898 459.508 318.993 443.421C326.424 441.001 335.254 436.86 335.612 429.056C335.926 422.122 329.289 417.243 324.154 412.595C318.179 407.192 313.272 400.012 312.747 391.974C312.222 383.936 317.213 375.262 325.087 373.557C331.385 372.202 339.173 374.931 343.639 370.276C345.597 368.231 346.238 365.292 347.726 362.893C356.559 348.692 384.187 359.302 382.17 337.426C380.667 321.034 368.051 306.256 375.169 288.745C382.093 271.72 405.86 267.294 421.982 271.311C438.312 275.383 439.794 296.254 457.6 298.416C460.673 298.797 463.806 298.438 466.886 298.801C477.683 300.108 485.413 309.771 495.428 314.008C509.461 319.952 525.849 314.528 540.671 318.069C550.263 320.355 558.527 326.206 567.298 330.697C576.07 335.188 586.451 338.373 595.682 334.921C603.207 332.093 608.214 325.214 615.458 322.08C623.656 318.526 631.007 318.567 639.044 313.422C641.543 311.818 644.073 309.926 645.237 307.195C646.736 303.699 645.667 299.705 645.63 295.905C645.487 280.052 663.107 268.032 662.426 252.191C662.064 243.697 656.321 235.261 659.135 227.236C661.497 220.5 669.375 217.006 676.502 217.472C683.617 217.943 690.125 221.489 696.262 225.118C730.835 245.521 762.414 270.973 789.701 300.422C791.466 302.33 793.324 304.467 793.511 307.075C793.865 311.8 788.894 314.906 786.089 318.715C781.324 325.208 782.941 334.532 786.834 341.585C790.726 348.639 796.576 354.48 800.468 361.533C813.971 385.981 801.096 415.709 794.492 442.839C789.022 465.312 788.097 488.88 791.796 511.718C792.561 516.416 793.458 521.522 791.22 525.73C788.112 531.561 780.617 533.011 774.836 536.197C765.164 541.538 759.653 553.503 761.899 564.318C763.06 569.92 766.017 574.961 768.203 580.26C777.478 602.812 774.744 633.294 795.473 646.133C800.785 649.426 807.386 651.246 810.91 656.398C813.592 660.311 813.897 665.318 814.11 670.065C815.081 691.586 816.071 713.113 817.043 734.634" stroke="#D0D0D0" stroke-width="3" stroke-miterlimit="10"/>
</g>
</svg>
