<?xml version="1.0" encoding="UTF-8" standalone="no"?>
<svg
   xmlns:dc="http://purl.org/dc/elements/1.1/"
   xmlns:cc="http://creativecommons.org/ns#"
   xmlns:rdf="http://www.w3.org/1999/02/22-rdf-syntax-ns#"
   xmlns:svg="http://www.w3.org/2000/svg"
   xmlns="http://www.w3.org/2000/svg"
   viewBox="0 0 19.064779 26.666668"
   height="26.666668"
   width="19.064779"
   xml:space="preserve"
   id="svg2"
   version="1.1"><metadata
     id="metadata8"><rdf:RDF><cc:Work
         rdf:about=""><dc:format>image/svg+xml</dc:format><dc:type
           rdf:resource="http://purl.org/dc/dcmitype/StillImage" /></cc:Work></rdf:RDF></metadata><defs
     id="defs6" /><g
     transform="matrix(1.3333333,0,0,-1.3333333,0,26.666667)"
     id="g10"><g
       transform="translate(0,10)"
       id="g12"><path
         id="path14"
         style="fill:#d0d0d0;fill-opacity:1;fill-rule:nonzero;stroke:none"
         d="m 12.149282,5 c 0,-2.761424 -2.238576,-5 -5,-5 -2.761424,0 -5,2.238576 -5,5 0,2.761424 2.238576,5 5,5 2.761424,0 5,-2.238576 5,-5 z" /></g><g
       transform="translate(0,10)"
       id="g16"><path
         id="path18"
         style="fill:#d0d0d0;fill-opacity:1;fill-rule:nonzero;stroke:none"
         d="M 0.460403,-1.651013 C 0.814155,-0.609002 1.839554,0 2.939976,0 V 0 C 3.521341,0 4.081265,-0.190162 4.607764,-0.436709 5.379496,-0.798095 6.24081,-1 7.149282,-1 8.057754,-1 8.919067,-0.798095 9.6908,-0.436709 10.217299,-0.190162 10.777224,0 11.358589,0 v 0 c 1.100421,0 2.125821,-0.609003 2.479572,-1.651014 0.35505,-1.045832 0.649468,-2.37906 0.311121,-3.348986 -1.004615,-2.879898 -3.949908,-5 -7,-5 -3.050092,0 -5.995384,2.120102 -7,5 -0.338346,0.969926 -0.043928,2.303155 0.311121,3.348987 z" /></g></g></svg>