<?xml version="1.0" encoding="UTF-8" standalone="no"?>
<svg
   xmlns:dc="http://purl.org/dc/elements/1.1/"
   xmlns:cc="http://creativecommons.org/ns#"
   xmlns:rdf="http://www.w3.org/1999/02/22-rdf-syntax-ns#"
   xmlns:svg="http://www.w3.org/2000/svg"
   xmlns="http://www.w3.org/2000/svg"
   viewBox="0 0 18.666668 26.666668"
   height="26.666668"
   width="18.666668"
   xml:space="preserve"
   id="svg2"
   version="1.1"><metadata
     id="metadata8"><rdf:RDF><cc:Work
         rdf:about=""><dc:format>image/svg+xml</dc:format><dc:type
           rdf:resource="http://purl.org/dc/dcmitype/StillImage" /></cc:Work></rdf:RDF></metadata><defs
     id="defs6" /><g
     transform="matrix(1.3333333,0,0,-1.3333333,0,26.666667)"
     id="g10"><g
       id="g12"><path
         id="path14"
         style="fill:#d0d0d0;fill-opacity:1;fill-rule:evenodd;stroke:none"
         d="m 0,10 c 0,1.104569 0.895431,2 2,2 v 3 c 0,2.761423 2.238576,5 5,5 2.761423,0 5,-2.238577 5,-5 v -1 c 0,-0.552284 -0.447715,-1 -1,-1 -0.552284,0 -1,0.447716 -1,1 v 1 c 0,1.656855 -1.343145,3 -3,3 -1.656854,0 -3,-1.343145 -3,-3 v -3 h 8 c 1.104569,0 2,-0.895431 2,-2 V 2 C 14,0.895432 13.104569,0 12,0 H 2 C 0.89543,0 0,0.895432 0,2 Z M 6.309017,3 C 5.937326,3 5.695578,3.391155 5.861804,3.723606 L 6.276605,4.55321 C 6.413393,4.826786 6.265565,5.156604 6.032007,5.3541 5.706614,5.629252 5.5,6.040497 5.5,6.5 5.5,7.328427 6.171573,8 7,8 7.828427,8 8.5,7.328427 8.5,6.5 8.5,6.040497 8.293386,5.629252 7.967993,5.3541 7.734435,5.156604 7.586607,4.826786 7.723395,4.55321 L 8.138197,3.723606 C 8.304421,3.391155 8.062674,3 7.690983,3 Z" /></g></g></svg>