<?xml version="1.0" encoding="UTF-8" standalone="no"?>
<svg
   xmlns:dc="http://purl.org/dc/elements/1.1/"
   xmlns:cc="http://creativecommons.org/ns#"
   xmlns:rdf="http://www.w3.org/1999/02/22-rdf-syntax-ns#"
   xmlns:svg="http://www.w3.org/2000/svg"
   xmlns="http://www.w3.org/2000/svg"
   viewBox="0 0 240 106.66667"
   height="106.66667"
   width="240"
   xml:space="preserve"
   id="svg2"
   version="1.1"><metadata
     id="metadata8"><rdf:RDF><cc:Work
         rdf:about=""><dc:format>image/svg+xml</dc:format><dc:type
           rdf:resource="http://purl.org/dc/dcmitype/StillImage" /></cc:Work></rdf:RDF></metadata><defs
     id="defs6" /><g
     transform="matrix(1.3333333,0,0,-1.3333333,0,106.66667)"
     id="g10"><g
       transform="translate(0,28.888885)"
       id="g12"><path
         id="path14"
         style="fill:#202020;fill-opacity:1;fill-rule:nonzero;stroke:none"
         d="m 66.666664,44.444447 c 0,-3.681897 -2.984768,-6.666668 -6.666668,-6.666668 l 5.555554,-8.888888 h -6.666665 l -5.555557,8.888888 H 39.999996 v -8.888888 h -4.444443 v 13.333334 h 24.444443 c 1.227299,0 2.222222,0.994923 2.222222,2.222222 0,1.227298 -0.994923,2.222225 -2.222222,2.222225 H 35.555553 v 4.444443 h 24.444443 c 3.6819,0 6.666668,-2.984768 6.666668,-6.666668 z m 71.111106,-28.88889 c 0,-3.6819 -2.98477,-6.666668 -6.66667,-6.666668 H 111.11111 V 0 h -4.44445 v 13.333336 h 24.44444 c 1.22731,0 2.22223,0.994923 2.22223,2.222221 0,1.227299 -0.99492,2.222222 -2.22223,2.222222 h -24.44444 v 4.444446 h 24.44444 c 3.6819,0 6.66667,-2.98477 6.66667,-6.666668 z M 0,51.111115 H 31.111109 V 46.666672 H 17.777777 V 28.888891 H 13.333332 V 46.666672 H 0 Z" /></g><g
       transform="translate(0,57.777779)"
       id="g16"><path
         id="path18"
         style="fill:#202020;fill-opacity:1;fill-rule:evenodd;stroke:none"
         d="m 102.22221,15.555556 c 0,3.681899 -2.98476,6.666667 -6.66666,6.666667 H 77.777771 c -3.681892,0 -6.666664,-2.984768 -6.666664,-6.666667 V 0 H 75.55555 V 8.888889 H 97.777771 V 0 h 4.444439 z m -4.444439,0 c 0,1.2273 -0.994919,2.222223 -2.222221,2.222223 H 77.777771 c -1.227295,0 -2.222221,-0.994923 -2.222221,-2.222223 v -2.222222 h 22.222221 z" /></g><g
       transform="translate(0,57.777779)"
       id="g20"><path
         id="path22"
         style="fill:#202020;fill-opacity:1;fill-rule:nonzero;stroke:none"
         d="m 106.66666,22.222223 h 4.44445 L 133.33333,5.555555 v 16.666668 h 4.44444 V 0 h -4.44444 L 111.11111,16.666668 V 0 h -4.44445 z m 66.66667,0 v -4.444444 h -24.44444 c -1.22732,0 -2.22223,-0.994923 -2.22223,-2.222223 0,-1.227299 0.99491,-2.222222 2.22223,-2.222222 h 17.77777 c 3.6819,0 6.66667,-2.984769 6.66667,-6.666667 C 173.33333,2.984768 170.34856,0 166.66666,0 h -24.44445 v 4.444445 h 24.44445 c 1.22729,0 2.22223,0.994922 2.22223,2.222222 0,1.2273 -0.99494,2.222222 -2.22223,2.222222 h -17.77777 c -3.68191,0 -6.66668,2.984769 -6.66668,6.666667 0,3.681899 2.98477,6.666667 6.66668,6.666667 z" /></g><g
       transform="translate(0,57.777775)"
       id="g24"><path
         id="path26"
         style="fill:#202020;fill-opacity:1;fill-rule:evenodd;stroke:none"
         d="m 66.666664,-17.777775 c 0,6.136494 -4.974617,11.111111 -11.111111,11.111111 h -8.888889 c -6.136497,0 -11.111111,-4.974617 -11.111111,-11.111111 0,-6.136497 4.974614,-11.111114 11.111111,-11.111114 h 8.888889 c 6.136494,0 11.111111,4.974617 11.111111,11.111114 z m -4.444446,0 c 0,3.681896 -2.984768,6.666664 -6.666665,6.666664 h -8.888889 c -3.6819,0 -6.666668,-2.984768 -6.666668,-6.666664 0,-3.6819 2.984768,-6.666668 6.666668,-6.666668 h 8.888889 c 3.681897,0 6.666665,2.984768 6.666665,6.666668 z" /></g><g
       transform="translate(0,57.777775)"
       id="g28"><path
         id="path30"
         style="fill:#202020;fill-opacity:1;fill-rule:nonzero;stroke:none"
         d="m 0,-17.777775 c 0,6.136494 4.974614,11.111111 11.111111,11.111111 h 19.999998 v -4.444447 H 11.111111 c -3.681898,0 -6.666667,-2.984768 -6.666667,-6.666664 0,-3.6819 2.984769,-6.666668 6.666667,-6.666668 h 19.999998 v -4.444446 H 11.111111 C 4.974614,-28.888889 0,-23.914272 0,-17.777775 Z m 72.222221,11.111111 v -22.222225 h 4.444443 v 16.421684 l 10,-8.18182 10,8.18182 v -16.421684 h 4.444446 v 22.222225 h -4.373508 l -10.070938,-8.239864 -10.070946,8.239864 z" /></g><g
       transform="translate(0,57.777779)"
       id="g32"><path
         id="path34"
         style="fill:#f2c505;fill-opacity:1;fill-rule:nonzero;stroke:none"
         d="m 0,-46.666672 c 0,6.136498 4.974614,11.111115 11.111111,11.111115 H 99.999992 V -57.777779 H 11.11111 C 4.974613,-57.777779 0,-52.803169 0,-46.666672 Z" /></g><g
       transform="translate(0,64.444443)"
       id="g36"><path
         id="path38"
         style="fill:#ffffff;fill-opacity:1;fill-rule:evenodd;stroke:none"
         d="m 3.333333,-53.333336 c 0,4.295548 3.482229,7.777779 7.777778,7.777779 h 21.11111 V -50 h -21.11111 c -1.840949,0 -3.333334,-1.492386 -3.333334,-3.333336 0,-1.84095 1.492385,-3.333336 3.333334,-3.333336 h 21.11111 v -4.444443 h -21.11111 c -4.295549,0 -7.777778,3.482232 -7.777778,7.777779 z m 67.777774,2.777779 c 0,2.761425 2.238579,5 5,5 H 95.55555 V -50 H 76.111107 c -0.306824,0 -0.555557,-0.248734 -0.555557,-0.555557 0,-0.306824 0.248733,-0.555558 0.555557,-0.555558 h 15.555557 c 2.761421,0 5,-2.238571 5,-5 0,-2.761421 -2.238579,-5 -5,-5 H 72.222221 v 4.444443 h 19.444443 c 0.306824,0 0.55555,0.248734 0.55555,0.555557 0,0.306824 -0.248726,0.555558 -0.55555,0.555558 H 76.111107 c -2.761421,0 -5,2.238579 -5,5 z" /></g><g
       transform="translate(0,64.444443)"
       id="g40"><path
         id="path42"
         style="fill:#ffffff;fill-opacity:1;fill-rule:nonzero;stroke:none"
         d="m 37.777775,-45.555557 v -15.555558 h 4.444446 v 9.737702 l 8.843315,-4.421654 10.045571,4.56617 v -9.882218 h 4.444443 v 15.555558 h -2.616391 l -11.828052,-5.555558 -10.690491,5.555558 z" /></g></g></svg>