<svg width="525" height="520" viewBox="0 0 525 520" fill="none" xmlns="http://www.w3.org/2000/svg">
<path d="M288.806 745.538C292.391 738.102 293.511 729.734 294.052 721.501C295.848 694.405 291.715 666.607 279.743 642.236C267.77 617.865 247.637 597.108 222.548 586.703C210.726 581.798 197.942 579.16 186.765 572.926C169.027 563.015 157.413 545.274 144.205 529.837C131.008 514.394 113.376 499.898 93.0829 500.739C84.1517 501.115 75.3334 504.479 66.4886 503.249C53.9193 501.501 44.3065 490.981 32.1351 487.376C20.759 484.011 8.54202 487.026 -3.28583 486.191C-17.0996 485.204 -30.4429 478.679 -39.6991 468.381M275.621 753.278C278.698 746.792 279.713 739.527 280.219 732.371C281.889 708.815 278.434 684.636 268.247 663.359C258.054 642.071 240.786 624.026 219.365 614.386C215.877 612.818 212.309 611.41 208.646 610.157C201.404 607.674 194.075 605.782 187.344 602.504C184.657 601.187 182.119 599.684 179.682 598.008C169.435 590.938 161.224 580.622 153.053 570.597C151.553 568.765 150.059 566.945 148.55 565.147C141.833 557.195 133.986 549.437 125.082 544.274C118.376 540.396 111.078 537.988 103.312 538.033C95.357 538.073 87.4522 540.696 79.5001 539.579C68.2085 537.992 59.358 529.287 48.4399 526.542C44.0659 525.443 39.5753 525.352 35.0663 525.601C29.0445 525.924 22.9488 526.86 16.9603 526.721C4.69654 526.466 -7.18779 521.553 -15.802 512.912M262.453 761.024C265.029 755.498 265.932 749.325 266.403 743.245C267.965 723.233 265.169 702.67 256.762 684.475C248.355 666.28 233.955 650.904 216.182 642.07C213.179 640.578 210.104 639.157 206.873 638.011C200.469 635.743 193.956 634.522 187.919 632.099C185.508 631.137 183.225 630 181.025 628.687C171.712 623.161 164.108 614.193 156.859 605.32C155.538 603.699 154.217 602.078 152.881 600.481C146.978 593.371 140.261 586.36 132.519 581.553C126.71 577.942 120.336 575.628 113.536 575.344C106.558 575.049 99.5665 576.93 92.5132 575.936C82.5055 574.521 74.4112 567.62 64.7463 565.736C60.8859 564.983 56.9265 565.071 52.9747 565.468C47.7126 565.995 42.4055 567.061 37.1804 567.28C26.4606 567.747 16.0583 564.462 8.07543 557.482M249.269 768.764C251.347 764.182 252.134 759.118 252.57 754.114C254.017 737.637 251.888 720.699 245.256 705.604C238.624 690.508 227.099 677.739 212.987 669.76C210.465 668.333 207.905 666.914 205.097 665.881C199.541 663.822 193.837 663.262 188.483 661.701C186.359 661.086 184.33 660.317 182.364 659.383C174.006 655.388 166.988 647.78 160.655 640.048C159.495 638.634 158.347 637.213 157.205 635.803C152.112 629.553 146.519 623.277 139.956 618.832C135.039 615.505 129.588 613.258 123.76 612.655C117.765 612.035 111.67 613.17 105.531 612.276C96.8009 611.023 89.4689 605.937 81.0466 604.92C77.6828 604.507 74.2715 604.778 70.883 605.336C66.3807 606.066 61.8683 607.272 57.4113 607.833C48.2399 609.004 39.2981 607.359 31.9574 602.035M236.09 776.516C237.667 772.894 238.348 768.932 238.749 765.005C240.088 752.072 238.619 738.749 233.773 726.747C228.91 714.741 220.306 704.51 209.816 697.465C207.774 696.103 205.712 694.682 203.347 693.75C198.64 691.901 193.751 691.984 189.075 691.301C187.237 691.035 185.452 690.638 183.724 690.066C176.318 687.62 169.889 681.356 164.478 674.776C163.487 673.578 162.521 672.351 161.562 671.135C157.284 665.728 152.817 660.215 147.421 656.109C143.406 653.061 138.879 650.88 134.012 649.965C128.993 649.009 123.812 649.403 118.572 648.632C111.119 647.54 104.539 644.275 97.3806 644.112C94.5197 644.051 91.6503 644.495 88.8251 645.213C85.0826 646.146 81.3587 647.482 77.6821 648.406C70.0607 650.309 62.5887 650.27 55.8747 646.626M222.905 784.256C223.974 781.584 224.55 778.725 224.916 775.874C226.147 766.486 225.348 756.772 222.26 747.865C219.184 738.952 213.543 731.135 206.605 725.15C205.063 723.814 203.49 722.424 201.547 721.605C197.679 719.971 193.609 720.708 189.622 720.898C188.071 720.98 186.547 720.961 185.039 720.747C178.557 719.851 172.746 714.928 168.267 709.494C167.449 708.496 166.651 707.487 165.876 706.464C162.408 701.916 159.064 697.139 154.847 693.394C151.725 690.63 148.126 688.526 144.232 687.292C140.189 686.001 135.922 685.654 131.58 685.006C125.412 684.086 119.588 682.625 113.682 683.323C111.329 683.597 108.997 684.23 106.74 685.091C103.751 686.217 100.828 687.705 97.9191 688.97C91.8479 691.605 85.8347 693.179 79.7628 691.19M209.738 792.001C214.082 778.961 211.659 763.862 203.439 752.838C202.439 751.503 201.319 750.18 199.809 749.468C195.632 747.498 190.99 750.877 186.405 751.441C180.876 752.121 175.649 748.531 172.096 744.232C168.533 739.938 166.039 734.828 162.318 730.682C153.137 720.441 136.479 717.914 124.671 724.974C117.776 729.097 111.688 736.251 103.674 735.769M514.068 641.771C521.247 623.925 528.451 603.725 520.856 586.046C514.644 571.579 499.912 562.574 491.767 549.109C483.925 536.168 482.824 520.32 477.218 506.26C469.39 486.646 452.844 471.31 433.876 462.039C401.325 446.124 360.872 447.644 329.611 465.949C318.485 472.459 308.36 481.001 296.176 485.21C287.041 488.372 277.24 488.921 267.776 490.846C250.059 494.468 233.384 503.11 220.202 515.502C216.538 518.944 213.029 522.854 211.541 527.666C208.802 536.469 213.611 546.109 220.528 552.205C227.444 558.302 236.192 561.786 244.356 566.063C277.262 583.286 301.306 613.931 318.761 646.711C324.178 656.884 329.1 667.486 331.297 678.805C334.25 694.055 332.088 709.788 329.921 725.168C328.985 731.802 330.934 738.269 335.32 743.344C339.706 748.419 345.902 751.563 352.209 753.859C376.721 762.797 405.187 760.192 427.665 746.943C436.895 741.5 445.059 734.431 452.828 727.049C477.642 703.46 501.323 673.533 514.095 641.769L514.068 641.771ZM342.578 658.82C345.405 670.859 344.674 683.412 343.744 695.766C343.347 701.061 345.081 706.24 348.662 710.366C352.249 714.503 357.212 717.19 362.25 719.219C381.975 727.254 404.767 726.34 423.317 716.301C430.872 712.181 437.674 706.684 444.223 700.749C463.433 681.865 482.19 658.463 492.263 633.395C497.963 619.215 503.418 603.179 497.566 589.089C492.777 577.554 481.435 570.145 474.887 559.497C468.382 548.995 466.7 536.565 461.578 525.593C454.458 510.295 440.668 498.348 425.273 490.668C399.638 477.981 368.237 478 343.392 491.374C334.552 496.135 326.521 502.47 316.981 505.623C309.759 507.994 302.073 508.45 294.679 509.979C280.727 512.882 267.746 519.763 257.543 529.579C254.711 532.312 251.995 535.394 250.814 539.158C248.653 546.043 252.178 553.584 257.317 558.48C262.461 563.36 269.021 566.294 275.158 569.829C299.912 583.981 318.432 608.296 332.322 633.886C336.642 641.839 340.526 650.1 342.572 658.809L342.578 658.82ZM353.876 638.838C356.594 647.673 357.272 657.029 357.6 666.373C357.743 670.329 359.261 674.219 362.038 677.397C364.827 680.597 368.559 682.809 372.326 684.587C387.269 691.658 404.394 692.547 419.02 685.672C424.922 682.892 430.35 678.945 435.672 674.445C449.262 660.262 463.122 643.383 470.493 625.028C474.712 614.514 478.435 602.646 474.304 592.129C470.919 583.523 463.017 577.696 458.035 569.883C452.882 561.798 450.61 552.82 445.96 544.915C439.552 533.915 428.533 525.334 416.68 519.29C397.99 509.759 375.608 508.367 357.182 516.793C350.641 519.799 344.7 523.971 337.803 526.04C332.5 527.632 326.934 527.977 321.598 529.117C311.419 531.312 302.124 536.421 294.896 543.677C292.891 545.691 290.983 547.949 290.106 550.681C288.511 555.655 290.759 561.108 294.142 564.792C297.508 568.471 301.865 570.851 305.997 573.632C322.563 584.775 335.594 602.698 345.918 621.099C349.135 626.819 352.01 632.738 353.893 638.843L353.876 638.838ZM365.164 618.864C367.85 624.505 369.818 630.633 371.429 636.982C372.089 639.584 373.408 642.19 375.386 644.43C377.388 646.686 379.868 648.436 382.374 649.958C392.539 656.12 403.979 658.706 414.685 655.051C418.917 653.606 422.977 651.22 427.073 648.155C435.049 638.684 444.006 628.318 448.656 616.671C451.396 609.823 453.376 602.129 450.982 595.19C449.019 589.516 444.501 585.275 441.134 580.283C437.311 574.626 434.449 569.1 430.299 564.26C424.577 557.588 416.336 552.385 408.045 547.938C396.265 541.624 382.941 538.741 370.947 542.241C366.703 543.492 362.852 545.473 358.593 546.476C355.202 547.278 351.751 547.529 348.495 548.267C342.089 549.754 336.487 553.102 332.233 557.771C331.053 559.065 329.944 560.505 329.381 562.2C328.363 565.257 329.311 568.606 330.934 571.094C332.527 573.557 334.686 575.393 336.807 577.436C345.2 585.521 352.728 597.101 359.497 608.306C361.617 611.806 363.533 615.396 365.181 618.868L365.164 618.864ZM418.502 621.864C420.873 617.098 424.907 613.257 426.857 608.305C429.14 602.52 428.108 595.567 424.26 590.681C418.309 583.142 407.619 581.608 399.442 576.567C394.537 573.533 390.312 569.108 384.727 567.666C362.731 561.998 364.07 589.383 376.462 598.883C388.576 608.172 399.933 632.342 418.502 621.864ZM105.82 413.123C109.076 403.808 115.364 395.839 119.284 386.782C123.214 377.72 124.317 366.208 117.824 358.769C116.016 356.701 113.677 354.997 112.606 352.476C110.773 348.139 113.401 343.197 116.598 339.739C124.518 331.184 135.902 326.924 145.628 320.509C155.348 314.084 164.165 303.328 161.907 291.901C160.92 286.905 157.877 282.154 158.638 277.119C160.04 267.904 172.486 265.385 181.516 267.678C194.348 270.945 205.368 279.154 217.831 283.661C235.326 289.986 254.663 288.698 272.714 293.219C293.284 298.368 311.804 311.338 323.673 328.904C335.558 346.475 340.689 368.487 337.802 389.492C335.961 402.914 331.02 415.714 325.598 428.149C323.66 432.579 321.553 437.135 317.848 440.259C314.585 443.013 310.397 444.361 306.305 445.553C293.913 449.154 281.266 451.846 268.481 453.604C261.227 454.61 253.801 455.344 247.114 458.32C240.146 461.429 234.475 466.759 228.747 471.793C213.058 485.603 194.118 498.479 173.25 497.312C137.277 495.318 92.5913 450.945 105.815 413.14L105.82 413.123ZM185.051 463.568C158.396 463.773 125.959 432.407 133.433 404.616C135.267 397.806 139.208 391.877 141.62 385.204C144.025 378.492 144.621 370.156 140.276 364.558C139.058 362.992 137.473 361.681 136.79 359.806C135.541 356.332 137.482 352.428 139.824 349.563C144.614 343.744 151.348 339.984 157.977 336.114C159.432 335.274 160.848 334.414 162.225 333.561C170.398 328.486 177.467 321.993 177.3 315.053C177.227 311.985 175.994 309.157 176.962 305.915C178.721 299.99 186.938 298.229 193.338 299.772C202.434 301.955 210.327 307.346 219.177 310.242C225.034 312.155 231.161 312.928 237.341 313.498C244.263 314.141 251.264 314.551 258.021 316.045C272.596 319.29 285.709 327.888 294.605 339.663C303.682 351.677 308.45 367.277 306.544 382.564C305.331 392.526 301.306 401.943 296.835 410.761C295.252 413.901 293.538 417.088 290.764 419.304C288.312 421.262 285.239 422.266 282.226 423.177C278.576 424.271 274.898 425.267 271.204 426.187C265.678 427.565 260.129 428.756 254.563 429.744C249.298 430.685 243.919 431.479 239.057 433.786C233.991 436.184 229.778 440.085 225.555 443.794C213.955 453.959 200.215 463.433 185.045 463.557L185.051 463.568ZM196.848 429.841C179.482 432.318 159.358 413.924 161.042 396.126C161.449 391.838 163.064 387.937 163.969 383.646C164.882 379.295 164.965 374.123 162.757 370.374C162.139 369.304 161.32 368.378 161.02 367.167C160.375 364.542 161.604 361.678 163.113 359.422C166.18 354.797 170.773 351.432 175.675 348.502C176.776 347.838 177.846 347.22 178.886 346.648C185.529 342.927 190.822 340.799 192.767 338.234C193.593 337.144 193.699 336.041 195.348 334.746C196.544 331.872 201.449 331.124 205.205 331.895C210.565 332.996 215.338 335.578 220.57 336.853C224.026 337.698 227.623 337.947 231.237 338.101C235.29 338.273 239.389 338.304 243.369 338.918C251.953 340.241 259.705 344.471 265.569 350.476C271.888 356.947 276.22 366.105 275.316 375.689C274.698 382.183 271.6 388.211 268.098 393.443C266.863 395.284 265.561 397.106 263.696 398.425C262.055 399.587 260.102 400.258 258.173 400.872C255.837 401.621 253.487 402.321 251.141 403.005C247.626 404.035 244.148 405.03 240.676 405.964C237.391 406.848 234.075 407.706 231.027 409.323C227.851 411.014 225.125 413.487 222.389 415.866C214.878 422.386 206.315 428.515 196.877 429.867L196.848 429.841ZM208.639 396.104C216.458 391.133 222.572 383.578 231.007 379.75C233.767 378.499 236.735 377.656 239.301 376.046C241.868 374.435 244.062 371.784 244.035 368.746C243.992 364.889 240.284 361.878 236.479 361.22C232.674 360.563 228.808 361.653 225.086 362.646C221.353 363.645 217.403 364.541 213.677 363.525C205.43 361.279 201.961 355.518 193.345 360.864C188.604 363.801 185.489 369.01 185.221 374.502C184.674 385.964 196.302 403.954 208.649 396.098L208.639 396.104ZM405.214 421.886C418.057 423.12 431.002 423.295 443.879 422.412C448.919 422.07 454.129 421.503 458.525 419.007C468.833 413.156 470.889 399.439 471.813 387.617C473.364 367.611 474.932 347.611 476.484 327.606C477.312 317.052 478.049 305.994 473.807 296.298C469.43 286.295 459.985 278.29 458.972 267.415C458.541 262.812 459.732 258.2 459.659 253.575C459.436 237.591 444.893 225.75 430.782 218.242C424.947 215.131 417.776 212.35 411.988 215.549C405.722 219.009 404.628 227.619 405.821 234.679C407.015 241.74 409.738 248.83 408.293 255.844C405.562 269.109 390.332 274.791 379.749 283.256C366.102 294.175 359.214 311.809 357.607 329.221C355.938 347.267 355.915 371.599 359.196 389.542C363.177 411.319 385.6 420.024 405.209 421.903L405.214 421.886ZM415.317 392.791C422.43 392.751 429.523 392.652 436.386 391.587C439.075 391.176 441.858 390.683 444.104 389.086C449.781 385.052 450.249 376.69 450.371 369.512C450.592 357.411 451.096 345.232 451.894 333.069C452.311 326.648 452.84 319.949 450.843 313.995C448.853 308.051 444.274 303.16 443.692 296.788C443.441 294.079 443.954 291.384 443.781 288.687C443.206 279.386 434.943 272.34 426.643 267.927C422.817 265.897 418.329 264.278 414.563 265.839C410.413 267.55 408.87 272.094 408.572 276.077C408.278 280.043 408.839 284.228 407.424 288.5C404.764 296.5 396.165 301.108 390.381 307.159C386.422 311.3 383.667 316.416 381.98 321.8C380.471 326.652 379.741 332.012 379.744 337.405C379.736 349.083 381.162 364.087 384.599 375.032C388.68 388.033 402.42 392.873 415.296 392.803L415.317 392.791ZM425.414 363.684C427.311 362.718 429.018 361.176 429.677 359.154C430.495 356.64 429.608 353.942 428.928 351.38C427.215 344.977 426.858 338.204 427.878 331.664C428.161 329.831 428.554 327.991 428.405 326.15C428.122 322.546 425.701 319.291 422.505 317.612C410.107 311.069 398.841 327.62 400.309 338.69C401.809 349.94 411.055 371.047 425.403 363.69L425.414 363.684ZM-19.1171 430.467C-10.8587 431.151 -2.51463 428.374 5.66691 429.716C15.8612 431.38 23.9608 439.106 33.6546 442.671C35.5633 443.382 37.6 443.918 39.6286 443.675C44.5974 443.061 47.8091 437.896 48.6257 432.957C50.5871 421.078 43.1942 408.521 47.3843 397.239C49.1961 392.368 52.9653 388.465 55.1119 383.729C62.4231 367.62 49.0602 349.789 48.3866 332.111C48.0241 322.658 51.5659 313.121 57.9936 306.184C68.234 295.149 86.0272 289.186 88.5305 274.339C89.2295 270.211 88.5146 265.957 87.4081 261.915C83.7805 248.71 75.7817 236.759 64.952 228.384C58.048 223.05 50.1419 219.195 42.3643 215.265C27.2609 207.644 11.9546 199.227 1.39304 186.001C-12.6665 168.373 -17.4143 143.242 -35.7555 130.112C-52.7833 117.922 -79.0314 121.402 -92.3011 137.598C-101.34 148.639 -104.428 163.88 -114.463 174.012C-124.305 183.933 -139.075 187.123 -153.046 187.668C-167.017 188.214 -181.123 186.596 -194.909 188.946C-197.288 189.349 -199.851 190.002 -201.308 191.927C-202.18 193.087 -202.529 194.559 -202.82 195.983C-209.691 229.021 -203.401 264.065 -188.462 294.315C-173.523 324.566 -150.32 350.245 -123.764 371.077C-114.223 378.555 -104.282 385.046 -92.2346 387.324C-82.4949 389.165 -74.6518 391.601 -66.5639 397.749C-51.6771 409.049 -39.3528 428.764 -19.1125 430.45L-19.1171 430.467ZM-114.14 353.289C-106.655 359.158 -98.8646 364.322 -89.4904 366.345C-81.9409 367.952 -75.8026 370.031 -69.4819 374.873C-57.791 383.85 -48.0082 399.138 -32.2627 400.851C-25.8194 401.555 -19.311 399.653 -12.9177 400.814C-4.93956 402.273 1.48731 408.239 9.09739 411.038C10.6038 411.595 12.197 412.031 13.7813 411.859C17.6105 411.446 20.1135 407.575 20.8222 403.883C22.538 395.015 17.244 385.598 20.6263 377.095C22.0893 373.424 25.0242 370.474 26.7252 366.894C32.5439 354.701 22.8147 341.137 22.5214 327.578C22.3859 319.878 24.7843 312.142 29.22 306.427C31.4516 303.569 34.2046 301.095 36.9794 298.708C43.047 293.521 49.1892 288.562 50.1538 280.37C50.5406 277.035 49.9136 273.601 49.045 270.292C46.245 259.806 40.4247 250.294 32.5791 243.478C27.5683 239.149 21.8266 235.928 16.1536 232.653C8.92521 228.463 1.58678 224.008 -4.89065 218.4C-8.25478 215.49 -11.3934 212.279 -14.1475 208.646C-24.8971 194.501 -29.2692 174.89 -43.9312 164.845C-57.3693 155.635 -77.6818 158.371 -88.2924 170.62C-95.5156 178.971 -98.1635 190.576 -106.248 197.955C-114.358 205.363 -126.236 207.212 -137.338 207.385C-148.515 207.53 -159.714 206.375 -170.785 208.828C-172.649 209.233 -174.658 209.808 -175.838 211.374C-176.54 212.307 -176.842 213.466 -177.111 214.606C-183.086 240.148 -178.935 267.436 -167.321 291.086C-167.049 291.657 -166.759 292.232 -166.466 292.79C-154.333 316.697 -135.24 336.715 -114.147 353.251L-114.14 353.289ZM-104.515 335.502C-99.0875 339.761 -93.4518 343.614 -86.7463 345.366C-81.3852 346.766 -76.9596 348.449 -72.4106 352.003C-63.9157 358.658 -56.6699 369.502 -45.4297 371.248C-40.8076 371.961 -36.1287 370.944 -31.5345 371.931C-25.7725 373.185 -21.0351 377.386 -15.4812 379.417C-14.3833 379.811 -13.2274 380.157 -12.0704 380.059C-9.3871 379.838 -7.58651 377.271 -6.97955 374.837C-5.50941 368.979 -8.70456 362.703 -6.12388 356.989C-5.00965 354.519 -2.91981 352.527 -1.64293 350.092C2.68935 341.825 -3.40139 332.511 -3.32536 323.077C-3.2338 317.13 -1.96792 311.19 0.47562 306.696C1.70274 304.447 3.24084 302.488 4.80078 300.617C8.19972 296.543 11.6193 292.627 11.8187 286.447C11.8994 283.917 11.3587 281.275 10.7065 278.712C8.75562 270.933 5.13075 263.863 0.230857 258.615C-2.88224 255.274 -6.45789 252.715 -10.0154 250.088C-14.5421 246.721 -19.1907 243.168 -23.4381 238.828C-25.645 236.562 -27.7531 234.097 -29.6723 231.366C-37.112 220.705 -41.0915 206.619 -52.102 199.661C-61.9502 193.43 -76.3441 195.418 -84.2787 203.724C-89.6865 209.387 -91.9276 217.345 -98.0221 221.991C-104.434 226.878 -113.373 227.415 -121.603 227.2C-129.994 226.978 -138.266 226.245 -146.651 228.803C-148 229.211 -149.465 229.714 -150.362 230.903C-150.896 231.61 -151.16 232.462 -151.397 233.313C-156.702 252.131 -154.164 272.544 -145.12 290.114C-144.906 290.533 -144.693 290.952 -144.462 291.375C-135.131 308.922 -120.16 323.284 -104.53 335.525L-104.515 335.502ZM-94.8794 317.708C-91.498 320.351 -88.0344 322.89 -83.9913 324.38C-80.8205 325.547 -78.0996 326.873 -75.3224 329.137C-70.0234 333.47 -65.3192 339.888 -58.5799 341.648C-55.7727 342.382 -52.9358 342.229 -50.1237 343.046C-46.5732 344.078 -43.5131 346.536 -40.026 347.805C-39.3412 348.052 -38.6135 348.274 -37.9053 348.265C-36.3678 348.233 -35.2697 346.971 -34.7706 345.784C-33.5462 342.937 -34.6424 339.802 -32.8695 336.866C-32.1041 335.596 -30.8547 334.547 -30.0172 333.278C-27.1775 328.927 -29.6237 323.874 -29.189 318.571C-28.8704 314.377 -28.754 310.228 -28.3025 306.956C-28.0737 305.326 -27.7567 303.873 -27.4178 302.507C-26.6858 299.572 -26.0057 296.696 -26.5518 292.488C-26.7727 290.746 -27.2361 288.93 -27.6505 287.099C-28.7737 282.039 -30.2031 277.413 -32.1465 273.726C-33.3603 271.401 -34.7885 269.471 -36.2199 267.486C-38.0386 264.954 -39.9974 262.303 -42.0163 259.201C-43.066 257.581 -44.1544 255.869 -45.2174 254.028C-49.3578 246.856 -52.9189 238.266 -60.2822 234.411C-66.5254 231.137 -74.9989 232.404 -80.2683 236.773C-83.8607 239.747 -85.7979 244.005 -89.8057 245.962C-94.6258 248.317 -100.531 247.53 -105.893 246.944C-111.501 246.328 -116.839 245.956 -122.543 248.708C-123.372 249.101 -124.287 249.543 -124.897 250.366C-125.25 250.841 -125.482 251.403 -125.704 251.959C-130.276 264.061 -129.393 277.58 -122.938 289.081C-122.784 289.349 -122.629 289.616 -122.475 289.884C-115.956 301.077 -105.095 309.777 -94.9222 317.733L-94.8794 317.708ZM-63.7419 316.443C-60.6472 317.353 -56.833 316.692 -55.0159 314.031C-54.2105 310.383 -56.8703 306.938 -59.5936 304.372C-62.3001 301.81 -65.45 299.147 -65.9815 295.458C-66.7899 289.831 -61.1982 285.204 -60.5564 279.567C-60.012 274.8 -63.6822 269.926 -68.4242 269.153C-72.775 268.44 -77.2196 270.777 -81.5465 269.908C-89.4165 268.314 -93.7144 261.562 -99.9504 270.586C-103.705 276.022 -104.615 282.627 -100.704 288.018C-97.0511 293.059 -90.0988 296.152 -85.2715 299.916C-78.7242 305.027 -71.9435 314.028 -63.7526 316.449L-63.7419 316.443ZM57.5598 137.518C62.3313 140.443 67.4396 143.259 73.0136 143.595C78.5983 143.924 84.7544 141.041 86.4384 135.701C87.3408 132.84 86.9366 129.52 88.638 127.053C89.9937 125.1 92.3992 124.125 93.9287 122.3C96.3625 119.397 95.9991 114.911 94.076 111.654C92.1529 108.398 89.0015 106.078 85.9135 103.894C67.2667 90.6549 47.6217 78.0352 33.4854 60.0515C21.2856 44.5319 13.7712 25.7078 1.27047 10.4333C-3.31824 4.83373 -10.128 -0.682432 -17.0509 1.41643C-35.8279 7.13387 -33.3248 39.4264 -24.9345 52.179C-11.5048 72.5972 3.04222 92.6272 20.874 109.448C32.0907 120.026 44.3906 129.465 57.5322 137.519L57.5598 137.518ZM36.4341 100.136C37.7767 101.102 39.2359 102.072 40.892 102.172C42.5481 102.272 44.3903 101.137 44.4457 99.4779C44.4832 98.2574 43.5972 97.2419 42.7685 96.3503C32.6713 85.5109 22.2876 74.6942 14.2923 62.156C11.7682 58.2044 6.12901 40.8236 2.28688 48.3081C-0.612924 53.964 5.03091 66.5326 7.91716 71.2598C14.797 82.5582 25.787 92.4968 36.4341 100.136ZM215.215 221.535C236.754 228.708 260.865 225.877 281.899 234.426C292.944 238.924 304.32 246.614 315.738 243.204C321.934 241.354 326.73 236.486 330.769 231.443C333.761 227.703 336.502 223.724 338.363 219.309C346.787 199.318 335.588 174.829 344.837 155.204C348.053 148.366 353.624 142.566 355.342 135.209C357.035 127.981 354.701 120.38 351.278 113.808C347.855 107.236 343.325 101.245 340.154 94.5417C332.212 77.8197 332.508 56.7271 319.413 43.6367C311.449 35.676 299.972 32.3836 288.824 30.7991C278.817 29.3842 268.244 29.1661 258.992 33.2376C241.355 40.9796 232.954 61.8998 216.255 71.5126C211.353 74.3429 205.886 76.0719 200.916 78.7844C195.945 81.497 191.282 85.5312 189.759 90.9772C188.368 95.9335 189.673 101.63 187.025 106.042C186.286 107.282 185.254 108.363 184.635 109.663C181.743 115.728 188.439 121.666 191.42 127.695C201.681 148.458 174.022 162.472 173.355 181.339C172.696 200.072 200.258 216.541 215.226 221.529L215.215 221.535ZM232.776 199.151C238.113 200.808 243.602 201.564 249.166 202.104C259.175 203.076 269.381 203.549 278.75 207.245C286.395 210.252 294.253 215.434 302.161 213.237C306.436 212.039 309.793 208.831 312.639 205.504C314.739 203.036 316.691 200.41 318.044 197.488C324.21 184.266 316.794 167.712 323.867 154.552C325.74 151.073 328.016 147.575 329.32 144.025C330.006 142.173 330.487 140.311 330.624 138.349C330.757 136.502 330.563 134.659 330.149 132.829C329.3 129.109 327.511 125.418 325.636 121.848C323.171 117.134 320.047 112.787 317.847 107.963C314.008 99.5331 312.938 89.6468 309.464 81.2062C307.967 77.575 306.026 74.2141 303.247 71.352C297.639 65.5699 289.564 62.9538 281.643 61.6186C274.475 60.3765 267.007 60.1216 260.488 62.8717C247.918 68.1169 241.902 82.9358 230.548 90.262C227.243 92.3985 223.55 93.7885 220.229 95.8483C216.898 97.9143 213.785 100.853 212.777 104.718C211.855 108.262 212.745 112.3 211.013 115.455C210.529 116.348 209.844 117.115 209.441 118.047C207.555 122.418 212.089 126.736 214.162 131.119C221.161 145.96 202.992 156.364 202.925 169.918C202.909 181.359 216.371 191.625 227.135 196.871C229.143 197.852 231.067 198.639 232.799 199.167L232.776 199.151ZM250.336 176.768C253.306 177.536 256.275 177.735 259.294 177.847C264.754 178.034 270.367 178.19 275.601 180.063C279.835 181.586 284.193 184.265 288.579 183.26C290.949 182.719 292.85 181.165 294.496 179.544C295.721 178.352 296.851 177.071 297.706 175.636C301.586 169.157 298.337 160.686 302.878 153.868C304.533 151.371 305.94 148.418 306.162 145.664C306.275 144.229 306.182 142.856 305.866 141.468C305.572 140.168 305.07 138.902 304.452 137.66C303.187 135.123 301.396 132.589 299.947 129.857C298.431 127.008 296.729 124.308 295.505 121.347C293.379 116.181 292.767 110.227 290.702 105.068C289.817 102.868 288.668 100.805 287.055 99.0245C283.788 95.4166 279.122 93.515 274.441 92.3784C270.109 91.3261 265.762 91.0389 261.964 92.4463C254.473 95.216 250.835 103.895 244.816 108.969C243.109 110.411 241.206 111.467 239.508 112.876C237.809 114.284 236.248 116.128 235.766 118.433C235.312 120.564 235.798 122.938 234.982 124.836C234.748 125.371 234.422 125.844 234.239 126.393C233.37 129.064 235.741 131.762 236.897 134.506C240.637 143.407 231.905 150.232 232.487 158.459C232.987 165.577 240.484 171.938 246.919 175.373C248.109 175.999 249.274 176.51 250.359 176.783L250.336 176.768ZM266.685 153.842C267.045 154.12 267.454 154.383 267.902 154.367C268.493 154.354 268.942 153.895 269.431 153.556C272.991 151.144 278.41 155.736 281.879 153.191C283.624 151.912 283.87 149.273 282.998 147.293C282.137 145.307 280.432 143.836 278.75 142.481C277.068 141.126 275.302 139.748 274.27 137.861C272.778 135.154 272.978 131.842 271.95 128.924C271.109 126.527 269.412 124.453 267.229 123.144C259.451 118.473 258.004 129.413 259.025 134.717C260.195 140.821 261.558 149.881 266.696 153.836L266.685 153.842Z" stroke="#D0D0D0" stroke-miterlimit="10"/>
</svg>
