<?xml version="1.0" encoding="UTF-8" standalone="no"?>
<svg
   xmlns:dc="http://purl.org/dc/elements/1.1/"
   xmlns:cc="http://creativecommons.org/ns#"
   xmlns:rdf="http://www.w3.org/1999/02/22-rdf-syntax-ns#"
   xmlns:svg="http://www.w3.org/2000/svg"
   xmlns="http://www.w3.org/2000/svg"
   viewBox="0 0 737.04144 483.29126"
   height="483.29126"
   width="737.04144"
   xml:space="preserve"
   id="svg2"
   version="1.1"><metadata
     id="metadata8"><rdf:RDF><cc:Work
         rdf:about=""><dc:format>image/svg+xml</dc:format><dc:type
           rdf:resource="http://purl.org/dc/dcmitype/StillImage" /></cc:Work></rdf:RDF></metadata><defs
     id="defs6" /><g
     transform="matrix(1.3333333,0,0,-1.3333333,0,483.29126)"
     id="g10"><g
       transform="rotate(120.00001,396.9024,275.46609)"
       id="g12"><path
         id="path14"
         style="fill:#d0d0d0;fill-opacity:1;fill-rule:nonzero;stroke:none"
         d="m 439.77328,752.34735 -0.73638,1.30682 -5.2e-4,-3e-4 z m -25.5346,-20.61548 1.40799,-0.51733 4.9e-4,10e-4 -1.40848,0.51599 z m -5.05499,-15.35046 1.28869,-0.76764 5.8e-4,9.8e-4 z m -8.26847,-8.55267 0.95056,-1.1604 7e-5,6e-5 z m -22.75372,-18.65039 -0.95056,1.16033 -2.5e-4,-1.8e-4 z m -13.08862,-13.81788 -1.31138,0.72821 -0.001,-0.002 1.3126,-0.72602 z m -0.0742,-18.13128 -1.21448,-0.88031 4.3e-4,-6.1e-4 z m 31.0592,-9.57856 -0.49478,-1.41601 5.8e-4,-2.4e-4 z m 33.50644,-27.19073 1.48801,-0.18927 0.13659,1.07361 -0.97583,0.46814 z m 5.31455,-19.09534 -0.70218,-1.3255 7.6e-4,-3.6e-4 z m 17.84701,3.00336 0.57547,-1.38525 9.2e-4,4.2e-4 z m 31.49185,-15.80774 1.46067,-0.34125 4.8e-4,0.002 -1.46115,0.33911 z m -4.47409,-16.40094 -1.40133,-0.53509 7.3e-4,-0.002 1.4006,0.53705 z m 4.44934,-6.17975 1.26041,0.81324 -0.001,0.002 -1.25919,-0.81519 z m 7.5022,-37.9187 0.51422,1.40912 -7.9e-4,2.4e-4 z m 42.41757,-13.05157 1.10443,1.01501 -1.2e-4,1.8e-4 z m -3.81903,-44.91416 1.16095,-0.9498 1.2e-4,1.6e-4 z m -35.84238,-18.61331 1.26713,-0.80276 0.002,0.003 -1.26917,0.79953 z m -3.89321,-7.42801 1.26947,-0.79907 0.003,0.004 -1.272,0.79498 z m -23.40876,-17.42679 0.99897,-1.11895 5.2e-4,4.2e-4 z m -20.75149,-35.34799 -1.17026,0.93836 -6.4e-4,-8e-4 z m -34.95249,-38.3884 -1.49478,0.1251 -1.8e-4,-0.002 1.49496,-0.12268 z m 2.85505,-21.08517 -1.49921,0.0494 -3e-5,-10e-4 1.49924,-0.0483 z m -2.02695,-22.58072 -1.4877,-0.19159 2.7e-4,-0.002 1.48743,0.1937 z m 2.69437,-7.45273 1.1235,0.99387 -0.002,0.003 -1.12109,-0.99655 z m 9.05944,-4.67184 0.62851,1.36197 -10e-4,5.8e-4 -0.6272,-1.36255 z m 29.19297,-30.55252 0.58239,1.38232 -6.1e-4,2.4e-4 z m 21.62899,-6.93363 1.05344,1.06784 -3e-5,3e-5 z m 1.27301,-17.93353 1.31098,-0.72894 6.7e-4,0.001 -1.31165,0.72772 z m -13.85488,-13.17517 -0.84134,1.24182 -10e-4,-7.3e-4 0.84244,-1.24109 z m -97.45414,-47.21301 0.45056,-1.43073 0.001,4.3e-4 -0.45188,1.4303 z m -6.89654,-0.54383 0.54214,1.39862 -0.005,0.002 -0.5376,-1.40039 z m -6.637,10.54261 1.32013,0.71215 -10e-4,0.002 -1.31897,-0.71435 z m -40.47714,4.77075 -0.0944,1.49701 -5.5e-4,-6e-5 0.0949,-1.49695 z m -64.03421,36.21313 -0.94331,-1.16626 v 0 z m -55.16014,28.74799 0.41559,1.44128 -0.001,3.7e-4 -0.41435,-1.44165 z m -11.21002,5.87076 -1.20336,-0.89554 7.8e-4,-10e-4 1.20258,0.89658 z m -2.22469,17.4021 1.4971,0.0933 -9e-5,10e-4 -1.49701,-0.0948 z m -17.95825,21.39416 -0.35196,-1.45813 4.3e-4,-9e-5 z m -15.43693,1.0011 -0.0767,-1.49805 0.001,-6e-5 0.0753,1.49811 z m -64.25668,3.13931 0.815293,-1.25909 3.58e-4,2.4e-4 z m -14.324585,-8.63928 -0.236984,1.48117 -0.0012,-1.8e-4 0.238166,-1.48099 z m -12.384143,2.65732 0.57938,1.3836 -4.92e-4,1.9e-4 z M 475.39587,765.68555 c -7.39221,2.453 -13.8761,0.86883 -19.78518,-2.01447 -2.93833,-1.43378 -5.76432,-3.2027 -8.4978,-4.96734 -2.75733,-1.78003 -5.40159,-3.54255 -8.07599,-5.04957 l 1.47274,-2.61358 c 2.77613,1.56427 5.52829,3.39837 8.23035,5.1427 2.72589,1.75976 5.42224,3.44293 8.18625,4.79162 5.49557,2.68152 11.13626,3.98328 17.52481,1.86329 z m -36.35949,-12.03168 c -2.50943,-1.41535 -5.04789,-2.62103 -7.585,-3.85919 -2.51687,-1.22834 -5.02722,-2.48633 -7.37097,-3.97132 -4.73577,-3.00061 -8.82251,-6.94867 -11.25018,-13.57556 l 2.81693,-1.03192 c 2.14532,5.85614 5.70907,9.32996 10.03891,12.07337 2.18911,1.38702 4.56533,2.5816 7.08108,3.80932 2.49552,1.2179 5.13565,2.47168 7.74301,3.94226 z m -26.20566,-21.40472 c -0.96637,-2.63031 -1.57392,-5.44391 -2.23703,-7.97992 -0.67896,-2.5965 -1.43408,-4.99353 -2.69928,-7.1211 l 2.57855,-1.53338 c 1.49094,2.5072 2.3302,5.24554 3.02313,7.89556 0.70878,2.71064 1.25067,5.25483 2.15058,7.70423 z m -4.93573,-15.1001 c -1.88284,-3.16089 -4.81931,-5.61121 -7.93039,-8.16004 l 1.90125,-2.32061 c 3.04391,2.49383 6.41076,5.25921 8.60653,8.94537 z m -7.93036,-8.15997 c -3.79459,-3.10865 -7.58609,-6.21723 -11.37732,-9.32563 -3.79129,-3.1084 -7.58231,-6.21661 -11.37637,-9.32477 l 1.90115,-2.32067 c 3.79462,3.10858 7.58609,6.21716 11.37732,9.32556 3.79129,3.10839 7.58231,6.21661 11.37637,9.32477 z M 377.21069,690.3385 c -4.89453,-4.01135 -10.18539,-8.37238 -13.44919,-14.24982 l 2.62275,-1.45642 c 2.94064,5.29547 7.75976,9.31415 12.72805,13.38593 z m -13.45041,-14.25201 c -3.25784,-5.89014 -4.18155,-13.93598 0.024,-19.73761 l 2.42896,1.76068 c -3.28431,4.53082 -2.74961,11.24212 0.17227,16.52496 l -2.62519,1.45197 z m 0.0244,-19.73822 c 3.65225,-5.03308 9.34469,-6.57666 15.04257,-7.39533 2.79251,-0.40124 5.9158,-0.66284 8.67679,-1.0122 2.86001,-0.36194 5.5823,-0.8407 8.05911,-1.70612 l 0.98959,2.83209 c -2.77597,0.96991 -5.74517,1.47992 -8.67208,1.85028 -3.02591,0.38294 -5.78492,0.59717 -8.62677,1.00543 -5.57081,0.80048 -10.15522,2.21076 -13.04111,6.18775 z m 31.77905,-10.11389 c 6.45432,-2.25232 11.32761,-7.1969 16.37988,-12.63886 4.96134,-5.34406 10.11576,-11.19916 16.97202,-14.4881 l 1.29751,2.70496 c -6.23239,2.98962 -10.97787,8.33832 -16.07095,13.82428 -5.0021,5.38794 -10.33774,10.89947 -17.59003,13.43023 z m 32.51263,-25.58521 c -0.45111,-3.54633 -0.70361,-7.6817 0.002,-11.40222 0.70828,-3.73511 2.43057,-7.26477 6.09845,-9.20789 l 1.40439,2.651 c -2.56128,1.35688 -3.94123,3.87714 -4.55536,7.11585 -0.61695,3.25329 -0.41214,7.01556 0.0266,10.46472 l -2.97602,0.37854 z m 6.10114,-20.61047 c 3.24448,-1.71643 6.7023,-1.48304 9.92532,-0.6189 3.17551,0.85144 6.42429,2.4104 9.19858,3.56287 l -1.15091,2.7705 c -2.99756,-1.24524 -5.90378,-2.65258 -8.82458,-3.43567 -2.87326,-0.77038 -5.45301,-0.83984 -7.74558,0.37293 z m 19.12482,2.94439 c 6.52646,2.71631 13.84097,3.8183 20.09387,1.34918 l 1.10184,2.79035 c -7.26831,2.87012 -15.45258,1.50024 -22.34845,-1.36987 z m 20.09387,1.34918 c 6.267,-2.47473 10.79236,-9.26385 9.36044,-15.43292 l 2.9223,-0.67828 c 1.85572,7.99475 -3.92669,16.03699 -11.1809,18.90155 z m 9.36093,-15.43084 c -0.29507,-1.26306 -0.8179,-2.54474 -1.44739,-3.89246 -0.58771,-1.2583 -1.37674,-2.7868 -1.97296,-4.12054 -1.23929,-2.77222 -2.26028,-5.94886 -0.99441,-9.26428 l 2.80264,1.07013 c -0.81049,2.12274 -0.25568,4.31622 0.93057,6.96984 0.61655,1.37922 1.25269,2.57746 1.9523,4.07532 0.65784,1.40839 1.28446,2.91229 1.65058,4.47949 z m -4.41403,-17.27924 c 0.55212,-1.43994 1.45816,-2.61011 2.30188,-3.61181 0.89132,-1.05829 1.66476,-1.88196 2.28891,-2.84607 l 2.51834,1.63037 c -0.7601,1.17407 -1.75406,2.24756 -2.5127,3.14831 -0.80627,0.95728 -1.4328,1.80786 -1.79525,2.75324 z m 4.58954,-6.45593 c 1.78952,-2.77344 2.12292,-5.9151 1.77285,-9.35523 -0.3579,-3.51745 -1.37606,-7.01763 -2.1459,-10.69427 -0.74014,-3.53491 -1.24084,-7.22284 -0.17017,-10.51569 1.11557,-3.43084 3.8238,-6.13964 8.79239,-7.9497 l 1.02686,2.81878 c -4.34424,1.58264 -6.20746,3.72492 -6.96628,6.0586 -0.80371,2.47168 -0.48172,5.46167 0.25351,8.9732 0.7056,3.36975 1.81555,7.28449 2.19418,11.00537 0.38651,3.79822 0.0648,7.71851 -2.23663,11.28541 z m 8.24838,-38.51459 c 3.64188,-1.32904 7.44281,-2.01361 11.21338,-2.50024 1.88504,-0.24329 3.78351,-0.43939 5.65131,-0.63855 1.87545,-0.19995 3.72509,-0.40338 5.5505,-0.66345 7.29535,-1.03937 13.99109,-2.9582 19.41229,-8.85535 l 2.20862,2.03033 c -6.1225,6.65992 -13.65863,8.72089 -21.19775,9.79499 -1.88318,0.26831 -3.77979,0.47662 -5.65564,0.67657 -1.88355,0.20081 -3.74149,0.39282 -5.58533,0.6308 -3.68716,0.47589 -7.23392,1.1261 -10.56894,2.34314 z m 41.82736,-12.65747 c 5.20923,-5.66818 6.60919,-13.48572 5.47766,-21.4584 -1.13171,-7.97431 -4.77704,-15.89579 -9.35339,-21.49109 l 2.3222,-1.89929 c 4.91571,6.01019 8.79108,14.44024 10.00147,22.96884 1.21063,8.53027 -0.22595,17.36706 -6.23908,23.90997 z m -3.87561,-42.94934 c -4.41766,-5.40002 -10.64136,-6.5625 -17.45383,-8.06396 -6.67208,-1.47052 -13.82119,-3.27778 -18.4967,-10.69965 l 2.53833,-1.59903 c 3.95139,6.2724 9.91562,7.89487 16.6041,9.36899 6.54809,1.4432 13.93213,2.74026 19.13006,9.09405 z m -35.94848,-18.76037 c -0.80424,-1.26951 -1.44379,-2.61527 -2.03907,-3.86857 -0.60821,-1.28051 -1.17132,-2.46688 -1.85904,-3.56717 l 2.54401,-1.58999 c 0.79544,1.2727 1.43115,2.61999 2.0249,3.87005 0.60669,1.27729 1.17218,2.45905 1.86344,3.55021 z m -3.89554,-7.43168 c -2.40619,-3.82263 -6.14759,-6.39245 -10.40796,-8.87985 -4.16559,-2.43207 -8.92432,-4.82608 -12.73084,-8.22751 l 1.99897,-2.23703 c 3.51025,3.13672 7.84188,5.30335 12.24447,7.87378 4.3078,2.51508 8.6124,5.38956 11.43424,9.87247 z m -23.13828,-17.1069 c -5.39346,-4.81512 -8.5387,-11.24493 -11.36795,-17.59378 -2.87036,-6.44101 -5.40585,-12.7605 -9.55484,-17.93481 l 2.34052,-1.87671 c 4.45315,5.55365 7.16424,12.32901 9.95452,18.59039 2.83137,6.35358 5.76081,12.23376 10.62568,16.577 z m -20.92343,-35.52939 c -2.66486,-3.32812 -5.92902,-6.09765 -9.45465,-8.73578 -1.76343,-1.31952 -3.57343,-2.59262 -5.40433,-3.8898 -1.82373,-1.29208 -3.66409,-2.60522 -5.45151,-3.98187 l 1.83054,-2.37677 c 1.73502,1.33624 3.53143,2.61859 5.35529,3.91077 1.81668,1.28711 3.66507,2.58709 5.46734,3.93566 3.60575,2.69809 7.10221,5.64478 9.99912,9.26267 z m -20.31049,-16.60745 c -7.11862,-5.48261 -14.16885,-13.06906 -14.96588,-22.59341 l 2.98957,-0.25016 c 0.68612,8.19907 6.83572,15.09781 13.80685,20.4668 z m -14.96606,-22.59583 c -0.31857,-3.88241 0.51517,-7.59198 1.32785,-11.05014 0.82996,-3.53155 1.63251,-6.78729 1.52295,-10.10827 l 2.99838,-0.0989 c 0.12528,3.7981 -0.79629,7.46979 -1.60089,10.89349 -0.82184,3.49713 -1.53305,6.77066 -1.25833,10.1185 l -2.98996,0.24533 z m 2.85077,-21.15957 c -0.12543,-3.89411 -0.87604,-7.24848 -1.5025,-10.90454 -0.62076,-3.62265 -1.09125,-7.42591 -0.51291,-11.91605 l 2.97543,0.38321 c -0.52167,4.0502 -0.10846,7.50815 0.49439,11.02615 0.59707,3.48462 1.40991,7.15043 1.54403,11.31467 l -2.99844,0.0966 z m -2.01514,-22.8227 c 0.34635,-2.65933 0.94733,-5.87805 3.06067,-8.25558 l 2.24222,1.9931 c -1.44614,1.62693 -1.98221,3.99466 -2.328,6.64991 z m 3.05829,-8.25289 c 1.3595,-1.53681 3.09195,-2.45301 4.75791,-3.15174 0.83166,-0.34881 1.69204,-0.66095 2.49206,-0.95871 0.81573,-0.30365 1.58282,-0.59735 2.30576,-0.93011 l 1.25442,2.72513 c -0.83435,0.38406 -1.69406,0.71145 -2.51364,1.01651 -0.8353,0.31091 -1.61868,0.59512 -2.3783,0.91372 -1.51657,0.63608 -2.75659,1.33899 -3.67123,2.37293 z m 9.55444,-5.03998 c 6.02845,-2.78192 9.80649,-8.6102 13.8931,-14.8985 3.97409,-6.11514 8.25623,-12.69095 15.34659,-15.67459 l 1.16357,2.76513 c -6.09716,2.56574 -9.91662,8.26905 -13.99469,14.54419 -3.96554,6.10202 -8.19024,12.77533 -15.15155,15.98774 z m 29.23908,-30.57285 c 3.73877,-1.57525 8.06976,-2.00113 11.73511,-2.65722 3.8052,-0.68116 7.04052,-1.61191 9.42291,-3.96198 l 2.10678,2.13577 c -3.08051,3.03867 -7.12491,4.08542 -11.00107,4.77924 -4.01605,0.7189 -7.76813,1.06546 -11.09894,2.46884 z m 21.15796,-6.61914 c 3.9386,-3.8855 3.94552,-10.85574 1.01483,-16.13797 l 2.62326,-1.45544 c 3.32315,5.9895 3.7009,14.56747 -1.53122,19.72909 z m 1.0155,-16.13675 c -2.9324,-5.27368 -8.04077,-9.04138 -13.38528,-12.66229 l 1.68267,-2.48364 c 5.3093,3.59698 11.00306,7.7146 14.32453,13.68805 z M 461.425,229.74634 c -29.85123,-20.2619 -62.65756,-36.15418 -97.06357,-47.02381 l 0.90375,-2.86059 c 34.68322,10.95715 67.75268,26.97687 97.84466,47.40222 z m -97.06226,-47.02338 c -2.3186,-0.73016 -4.26828,-1.20996 -5.90384,-0.57593 l -1.08429,-2.79718 c 2.76441,-1.07159 5.73377,-0.16717 7.88925,0.51166 z m -5.90838,-0.57416 c -1.43396,0.55048 -2.37034,1.7912 -3.22995,3.66272 -0.4289,0.93384 -0.79804,1.92932 -1.21546,3.00519 -0.40652,1.04779 -0.85391,2.15747 -1.40906,3.18646 l -2.64029,-1.42431 c 0.45835,-0.84961 0.8483,-1.80555 1.25248,-2.84729 0.39328,-1.01361 0.80819,-2.13159 1.28616,-3.17218 0.95413,-2.07733 2.32278,-4.22925 4.88092,-5.21131 z m -5.85563,9.85657 c -3.87741,7.15936 -12.88217,9.46069 -20.36032,8.98932 l 0.18872,-2.99408 c 7.0318,0.44324 14.48978,-1.80365 17.53363,-7.42395 z m -20.36032,8.98932 c -3.75247,-0.23651 -7.4263,-1.00574 -10.97711,-1.74664 -3.58676,-0.74836 -7.05054,-1.46851 -10.55304,-1.68927 l 0.18872,-2.99408 c 3.75248,0.23651 7.4263,1.00573 10.97708,1.74664 3.5868,0.74841 7.05054,1.46851 10.55307,1.68927 z m -21.5307,-3.43597 c -12.08728,-0.76618 -22.85718,4.11431 -33.14917,11.2998 -5.14334,3.59088 -10.13058,7.73114 -15.07928,11.98663 -4.92951,4.23908 -9.84679,8.61591 -14.76753,12.59601 l -1.88663,-2.33252 c 4.87408,-3.94232 9.7146,-8.25262 14.69813,-12.53808 4.96433,-4.26899 10.04538,-8.49073 15.31797,-12.17182 10.53979,-7.35852 21.99215,-12.66217 35.0563,-11.83398 z m -62.99598,35.88244 c -16.38364,13.25165 -35.43592,23.18326 -55.68787,29.02301 l -0.83119,-2.88254 c 19.86676,-5.72869 38.56019,-15.47323 54.63243,-28.47299 z m -55.68911,29.02338 c -2.09344,0.60171 -4.13934,1.17786 -5.98547,2.01239 -1.83025,0.82736 -3.35567,1.86374 -4.43631,3.31326 l -2.40517,-1.79312 c 1.49012,-1.99875 3.50566,-3.30447 5.60573,-4.25381 2.08417,-0.94211 4.3579,-1.57718 6.3925,-2.16199 z m -10.42102,5.32461 c -1.50003,2.01566 -1.9492,4.49802 -2.01181,7.40219 -0.0313,1.45206 0.0335,2.93943 0.0864,4.49906 0.0522,1.53702 0.0921,3.13315 -0.006,4.6987 l -2.99418,-0.18674 c 0.0877,-1.40689 0.0535,-2.87436 0.001,-4.41022 -0.0514,-1.51321 -0.121,-3.10797 -0.0874,-4.66546 0.0671,-3.11487 0.54494,-6.36112 2.60441,-9.12857 l 2.40671,1.79104 z m -1.93103,16.60141 c -0.67183,10.60431 -8.77302,20.26712 -19.10371,22.75757 l -0.70308,-2.91644 c 9.0489,-2.18143 16.22395,-10.73642 16.81279,-20.03079 z m -19.1033,22.75748 c -2.66159,0.64243 -5.35245,0.83139 -7.97629,0.8988 -2.70157,0.0694 -5.15542,0.0126 -7.73733,0.14228 l -0.15053,-2.99622 c 2.58434,-0.12982 5.33998,-0.0816 7.81084,-0.14508 2.54858,-0.0655 4.99305,-0.24728 7.34939,-0.81604 z m -15.71222,1.04102 c -5.36029,0.27435 -10.86677,1.33493 -16.45686,2.61172 -5.54119,1.26566 -11.24626,2.76538 -16.77825,3.84058 -11.09065,2.15558 -22.167331,2.76284 -31.913883,-3.55219 l 1.631294,-2.5177 c 8.718438,5.6489 18.782559,5.24887 29.710229,3.125 5.47718,-1.06454 11.00065,-2.52258 16.68259,-3.82037 5.63304,-1.28662 11.3443,-2.39511 16.97155,-2.68314 z m -65.148634,2.90036 c -1.24292,-0.80481 -2.426339,-1.70719 -3.561959,-2.59543 -1.15139,-0.90058 -2.237365,-1.77332 -3.355705,-2.58515 -2.231117,-1.61963 -4.397804,-2.84768 -6.828621,-3.23663 l 0.473976,-2.96231 c 3.130928,0.50095 5.759705,2.05994 8.117028,3.77118 1.175872,0.85361 2.332367,1.78229 3.441597,2.64987 1.125,0.87994 2.220344,1.71252 3.344261,2.44028 z m -13.747467,-8.41739 c -3.737351,-0.60105 -7.543934,0.87543 -11.566597,2.55993 l -1.158757,-2.76718 c 3.887371,-1.62784 8.485192,-3.51321 13.201695,-2.7547 z m -11.567089,2.56012 c -8.967103,3.75125 -17.937249,7.49936 -26.907059,11.24731 -8.969904,3.74802 -17.939473,7.49588 -26.905905,11.24683 l -1.157772,-2.76758 c 8.967103,-3.75122 17.937248,-7.49933 26.907057,-11.24732 8.969906,-3.74801 17.939476,-7.49588 26.905906,-11.24682 z" /></g></g></svg>